<svg width="100" height="100" viewBox="0 0 100 100" fill="none" xmlns="http://www.w3.org/2000/svg">
<g clip-path="url(#clip0_4_594)">
<path d="M82.065 98.3695C82.065 99.2699 81.335 100 80.4346 100H19.565C18.6646 100 17.9346 99.2699 17.9346 98.3695C17.9346 97.4691 18.6646 96.7391 19.565 96.7391H39.6736V78.8043C39.6736 77.9039 40.4037 77.1738 41.3041 77.1738C42.2045 77.1738 42.9346 77.9039 42.9346 78.8043V96.7391H57.065V78.8043C57.065 77.9039 57.7951 77.1738 58.6955 77.1738C59.5959 77.1738 60.326 77.9039 60.326 78.8043V96.7391H80.4348C81.335 96.7391 82.065 97.4691 82.065 98.3695Z" fill="#777777"/>
<path d="M91.3043 80.4348H8.6957C3.89316 80.4348 0 76.5416 0 71.7391V17.3913C0 12.5889 3.89316 8.69556 8.6957 8.69556H91.3045C96.1068 8.69556 100 12.5887 100 17.3913V71.7391C100 76.5416 96.1066 80.4348 91.3043 80.4348Z" fill="#E2DCBC"/>
<path d="M91.3041 76.0869H8.69551C6.29414 76.0869 4.34766 74.1404 4.34766 71.739V17.3912C4.34766 14.9898 6.29414 13.0433 8.69551 13.0433H91.3043C93.7057 13.0433 95.6521 14.9898 95.6521 17.3912V71.739C95.6519 74.1404 93.7055 76.0869 91.3041 76.0869Z" fill="#F4EECB"/>
<path d="M76.0871 84.7826H23.9133C21.5119 84.7826 19.5654 82.8361 19.5654 80.4348C19.5654 78.0334 21.5119 76.0869 23.9133 76.0869H76.0871C78.4885 76.0869 80.435 78.0334 80.435 80.4348C80.435 82.8361 78.4885 84.7826 76.0871 84.7826Z" fill="#BFBBA3"/>
<path d="M76.0867 63.0436H56.5215V4.34785C56.5215 1.94648 58.468 0 60.8693 0H71.7389C74.1402 0 76.0867 1.94648 76.0867 4.34785V63.0436Z" fill="#A3CCAA"/>
<path d="M65.2176 63.0436H45.6523V28.2609C45.6523 25.8596 47.5988 23.9131 50.0002 23.9131H60.8697C63.2711 23.9131 65.2176 25.8596 65.2176 28.2609V63.0436Z" fill="#80A886"/>
<path d="M60.8694 63.0435H41.3042V23.913C41.3042 21.5117 43.2507 19.5652 45.6521 19.5652H56.5216C58.9229 19.5652 60.8694 21.5117 60.8694 23.913V63.0435V63.0435Z" fill="#FC8059"/>
<path d="M49.9998 63.0435H30.4346V47.8261C30.4346 45.4248 32.3811 43.4783 34.7824 43.4783H45.652C48.0533 43.4783 49.9998 45.4248 49.9998 47.8261V63.0435V63.0435Z" fill="#BF5243"/>
<path d="M45.6521 63.0436H26.0869V43.4783C26.0869 41.077 28.0334 39.1305 30.4348 39.1305H41.3043C43.7057 39.1305 45.6521 41.077 45.6521 43.4783V63.0436Z" fill="#FED766"/>
<path d="M81.1334 63.5869C81.1334 64.4873 80.4033 65.2174 79.5029 65.2174H14.1305C13.2301 65.2174 12.5 64.4873 12.5 63.5869C12.5 62.6865 13.2301 61.9564 14.1305 61.9564H79.5031C80.4035 61.9564 81.1334 62.6865 81.1334 63.5869ZM85.8695 61.9564H85.5494C84.649 61.9564 83.9189 62.6865 83.9189 63.5869C83.9189 64.4873 84.649 65.2174 85.5494 65.2174H85.8695C86.7699 65.2174 87.5 64.4873 87.5 63.5869C87.5 62.6865 86.7699 61.9564 85.8695 61.9564Z" fill="#BFBBA3"/>
</g>
<defs>
<clipPath id="clip0_4_594">
<rect width="100" height="100" fill="white"/>
</clipPath>
</defs>
</svg>
