<svg width="165" height="165" viewBox="0 0 165 165" fill="none" xmlns="http://www.w3.org/2000/svg">
<g clip-path="url(#clip0_22_1013)">
<path d="M94.2243 41.8916H70.7751C66.9587 41.8916 63.7345 41.8916 62.521 47.7539H102.475C101.265 41.8916 98.0406 41.8916 94.2243 41.8916Z" fill="#66CEDB"/>
<path d="M15.0835 117.246C19.94 117.246 23.8769 113.309 23.8769 108.453C23.8769 103.596 19.94 99.6592 15.0835 99.6592C10.227 99.6592 6.29004 103.596 6.29004 108.453C6.29004 113.309 10.227 117.246 15.0835 117.246Z" fill="#F8CF26"/>
<path d="M15.0835 155.351C19.94 155.351 23.8769 151.414 23.8769 146.557C23.8769 141.701 19.94 137.764 15.0835 137.764C10.227 137.764 6.29004 141.701 6.29004 146.557C6.29004 151.414 10.227 155.351 15.0835 155.351Z" fill="#F8CF26"/>
<path d="M15.0835 79.1406C19.94 79.1406 23.8769 75.2036 23.8769 70.3471C23.8769 65.4907 19.94 61.5537 15.0835 61.5537C10.227 61.5537 6.29004 65.4907 6.29004 70.3471C6.29004 75.2036 10.227 79.1406 15.0835 79.1406Z" fill="#F8CF26"/>
<path d="M9.22118 35.1738C9.22118 33.5529 10.5343 33.0986 12.1523 33.0986H41.4638V15.5117H6.29004V34.1948L9.22118 38.105V35.1738V35.1738ZM12.1523 21.374H35.6015V27.2363H12.1523V21.374V21.374Z" fill="#EE8B26"/>
<path d="M149.916 79.1406C154.772 79.1406 158.709 75.2036 158.709 70.3471C158.709 65.4907 154.772 61.5537 149.916 61.5537C145.06 61.5537 141.123 65.4907 141.123 70.3471C141.123 75.2036 145.06 79.1406 149.916 79.1406Z" fill="#F8CF26"/>
<path d="M149.916 117.246C154.772 117.246 158.709 113.309 158.709 108.453C158.709 103.596 154.772 99.6592 149.916 99.6592C145.06 99.6592 141.123 103.596 141.123 108.453C141.123 113.309 145.06 117.246 149.916 117.246Z" fill="#F8CF26"/>
<path d="M149.916 155.351C154.772 155.351 158.709 151.414 158.709 146.557C158.709 141.701 154.772 137.764 149.916 137.764C145.06 137.764 141.123 141.701 141.123 146.557C141.123 151.414 145.06 155.351 149.916 155.351Z" fill="#F8CF26"/>
<path d="M82.5 23.4492C87.3565 23.4492 91.2934 19.5122 91.2934 14.6557C91.2934 9.79926 87.3565 5.8623 82.5 5.8623C77.6435 5.8623 73.7065 9.79926 73.7065 14.6557C73.7065 19.5122 77.6435 23.4492 82.5 23.4492Z" fill="#F8CF26"/>
<path d="M152.847 6.71777H117.673V17.5865C117.673 18.5098 117.24 19.8083 116.501 20.3593L111.811 24.3046H152.847V6.71777ZM146.985 18.4424H123.536V12.5801H146.985V18.4424Z" fill="#EE8B26"/>
<path d="M126.467 47.7539H108.584C107.221 38.9604 101.3 36.0293 94.2245 36.0293H70.7753C63.6995 36.0293 57.7786 38.9604 56.4156 47.7539H38.5327C36.9147 47.7539 35.6016 48.2082 35.6016 49.8291V165H41.4639V53.6162H123.536V165H129.398V49.8291C129.398 48.2082 128.085 47.7539 126.467 47.7539ZM70.7753 41.8916H94.2245C98.0408 41.8916 101.265 41.8916 102.479 47.7539H62.5212C63.7347 41.8916 66.959 41.8916 70.7753 41.8916Z" fill="black"/>
<path d="M82.5 29.3114C90.5811 29.3114 97.1557 22.7369 97.1557 14.6557C97.1557 6.57456 90.5811 0 82.5 0C74.4188 0 67.8442 6.57456 67.8442 14.6557C67.8442 22.7369 74.4188 29.3114 82.5 29.3114ZM82.5 5.85936C87.3481 5.85936 91.2934 9.80468 91.2934 14.6528C91.2934 19.5009 87.3481 23.4462 82.5 23.4462C77.6518 23.4462 73.7065 19.5009 73.7065 14.6528C73.7065 9.80468 77.6518 5.85936 82.5 5.85936Z" fill="black"/>
<path d="M135.26 70.3471C135.26 78.4283 141.835 85.0029 149.916 85.0029C157.997 85.0029 164.572 78.4283 164.572 70.3471C164.572 62.266 157.997 55.6914 149.916 55.6914C141.835 55.6914 135.26 62.266 135.26 70.3471ZM158.709 70.3471C158.709 75.1952 154.764 79.1406 149.916 79.1406C145.068 79.1406 141.123 75.1952 141.123 70.3471C141.123 65.499 145.068 61.5537 149.916 61.5537C154.764 61.5537 158.709 65.4961 158.709 70.3471Z" fill="black"/>
<path d="M15.0835 55.6914C7.00229 55.6914 0.427734 62.266 0.427734 70.3471C0.427734 78.4283 7.00229 85.0029 15.0835 85.0029C23.1646 85.0029 29.7392 78.4283 29.7392 70.3471C29.7392 62.266 23.1646 55.6914 15.0835 55.6914ZM15.0835 79.1406C10.2353 79.1406 6.29002 75.1952 6.29002 70.3471C6.29002 65.499 10.2353 61.5537 15.0835 61.5537C19.9316 61.5537 23.8769 65.499 23.8769 70.3471C23.8769 75.1952 19.9316 79.1406 15.0835 79.1406Z" fill="black"/>
<path d="M149.916 93.7969C141.835 93.7969 135.26 100.371 135.26 108.453C135.26 116.534 141.835 123.108 149.916 123.108C157.997 123.108 164.572 116.534 164.572 108.453C164.572 100.371 157.997 93.7969 149.916 93.7969ZM149.916 117.246C145.068 117.246 141.123 113.301 141.123 108.453C141.123 103.604 145.068 99.6592 149.916 99.6592C154.764 99.6592 158.709 103.604 158.709 108.453C158.709 113.301 154.764 117.246 149.916 117.246Z" fill="black"/>
<path d="M15.0835 93.7969C7.00229 93.7969 0.427734 100.371 0.427734 108.453C0.427734 116.534 7.00229 123.108 15.0835 123.108C23.1646 123.108 29.7392 116.534 29.7392 108.453C29.7392 100.371 23.1646 93.7969 15.0835 93.7969ZM15.0835 117.246C10.2353 117.246 6.29002 113.301 6.29002 108.453C6.29002 103.604 10.2353 99.6592 15.0835 99.6592C19.9316 99.6592 23.8769 103.604 23.8769 108.453C23.8769 113.301 19.9316 117.246 15.0835 117.246Z" fill="black"/>
<path d="M149.916 131.901C141.835 131.901 135.26 138.476 135.26 146.557C135.26 154.638 141.835 161.213 149.916 161.213C157.997 161.213 164.572 154.638 164.572 146.557C164.572 138.476 157.997 131.901 149.916 131.901ZM149.916 155.351C145.068 155.351 141.123 151.405 141.123 146.557C141.123 141.709 145.068 137.764 149.916 137.764C154.764 137.764 158.709 141.709 158.709 146.557C158.709 151.405 154.764 155.351 149.916 155.351Z" fill="black"/>
<path d="M15.0835 131.901C7.00229 131.901 0.427734 138.476 0.427734 146.557C0.427734 154.638 7.00229 161.213 15.0835 161.213C23.1646 161.213 29.7392 154.638 29.7392 146.557C29.7392 138.476 23.1646 131.901 15.0835 131.901ZM15.0835 155.351C10.2353 155.351 6.29002 151.405 6.29002 146.557C6.29002 141.709 10.2353 137.764 15.0835 137.764C19.9316 137.764 23.8769 141.709 23.8769 146.557C23.8769 151.405 19.9316 155.351 15.0835 155.351Z" fill="black"/>
<path d="M35.6015 21.374H12.1523V27.2363H35.6015V21.374Z" fill="black"/>
<path d="M146.985 12.5801H123.536V18.4424H146.985V12.5801Z" fill="black"/>
<path d="M9.8074 48.6571C10.3702 49.4075 11.2466 49.8295 12.1523 49.8295C12.463 49.8295 12.7737 49.7797 13.0786 49.6801C14.2774 49.2785 15.0835 48.1588 15.0835 46.8984V38.9609H44.3949C46.0129 38.9609 47.3261 36.7918 47.3261 35.1738V11.7247C47.3261 10.1037 46.0129 9.64941 44.3949 9.64941H3.35888C1.74089 9.64941 0.427734 10.1037 0.427734 11.7217V35.1709C0.427734 35.804 0.632915 36.4225 1.01396 36.9296L9.8074 48.6571ZM6.29002 15.5117H41.4638V33.0986H12.1523C10.5343 33.0986 9.22117 33.5529 9.22117 35.1738V38.105L6.29002 34.1948V15.5117V15.5117Z" fill="black"/>
<path d="M103.018 30.1669H155.778C157.396 30.1669 158.71 27.9979 158.71 26.3799V2.93072C158.71 1.3098 157.396 0.855469 155.778 0.855469H114.742C113.124 0.855469 111.811 1.3098 111.811 2.92779V16.1179L101.259 24.032C100.251 24.7883 99.8375 26.5352 100.236 27.7311C100.638 28.93 101.754 30.1669 103.018 30.1669ZM116.501 20.3593C117.24 19.8053 117.673 18.5098 117.673 17.5864V6.71776H152.847V24.3046H111.811L116.501 20.3593Z" fill="black"/>
<path d="M64.8836 70.3593C64.7165 69.1809 63.8489 68.0056 62.694 67.7154L50.9695 64.6758L49.5479 70.3094L59.3613 73.1644L61.5333 88.7903H59.0506V94.6526H70.7752V88.7903H67.4542L64.8836 70.3593Z" fill="black"/>
<path d="M64.8836 105.533C64.7165 104.355 63.8489 103.179 62.694 102.889L50.9695 99.8496L49.5479 105.483L59.3613 108.338L61.5333 123.964H59.0506V129.826H70.7752V123.964H67.4542L64.8836 105.533Z" fill="black"/>
<path d="M64.8836 140.707C64.7165 139.529 63.8489 138.353 62.694 138.063L50.9695 135.023L49.5479 140.657L59.3613 143.512L61.5333 159.138H59.0506V165H70.7752V159.138H67.4542L64.8836 140.707Z" fill="black"/>
<path d="M102.306 67.5014C101.148 67.7916 100.283 69.1809 100.116 70.3593L97.5456 88.7903H94.2246V94.6526H105.949V88.7903H103.467L105.641 73.1409L115.455 70.4736L114.033 64.6787L102.306 67.5014Z" fill="black"/>
<path d="M102.306 102.675C101.148 102.965 100.283 104.355 100.116 105.533L97.5456 123.964H94.2246V129.826H105.949V123.964H103.467L105.641 108.315L115.455 105.647L114.033 99.8525L102.306 102.675Z" fill="black"/>
<path d="M115.455 140.607L114.033 134.921L102.309 137.852C101.151 138.142 100.286 139.532 100.119 140.71L97.5456 159.138H94.2246V165H105.949V159.138H103.467L105.641 143.489L115.455 140.607Z" fill="black"/>
<path d="M85.4311 59.4785H79.5688V77.0654H76.6377V82.9277H88.3623V77.0654H85.4311V59.4785Z" fill="black"/>
<path d="M85.4311 87.9346H79.5688V93.7969H85.4311V87.9346Z" fill="black"/>
<path d="M85.4311 99.6592H79.5688V105.521H85.4311V99.6592Z" fill="black"/>
<path d="M85.4311 111.384H79.5688V117.246H85.4311V111.384Z" fill="black"/>
</g>
<defs>
<clipPath id="clip0_22_1013">
<rect width="165" height="165" fill="white"/>
</clipPath>
</defs>
</svg>
