<svg width="314" height="20" viewBox="0 0 314 20" fill="none" xmlns="http://www.w3.org/2000/svg">
<path d="M0.989649 19V0.5H4.46465V19H0.989649ZM15.9115 19.2375C14.9782 19.2375 14.0574 19.1667 13.149 19.025C12.249 18.8917 11.399 18.6958 10.599 18.4375V15.625C11.399 15.9 12.2782 16.1125 13.2365 16.2625C14.2032 16.4042 15.1032 16.475 15.9365 16.475C17.3282 16.475 18.3449 16.2583 18.9865 15.825C19.6282 15.3833 19.949 14.7333 19.949 13.875C19.949 13.4 19.8449 13.0042 19.6365 12.6875C19.4365 12.3708 19.1074 12.1042 18.649 11.8875C18.1907 11.6625 17.5574 11.4583 16.749 11.275L15.4365 10.975C13.6449 10.5833 12.324 9.9625 11.474 9.1125C10.6324 8.2625 10.2115 7.1375 10.2115 5.7375C10.2115 3.99583 10.8574 2.65 12.149 1.7C13.449 0.741666 15.3574 0.262499 17.874 0.262499C18.7157 0.262499 19.5282 0.316666 20.3115 0.424999C21.1032 0.524999 21.824 0.666666 22.474 0.85V3.65C21.8157 3.45 21.0949 3.29583 20.3115 3.1875C19.5365 3.07917 18.7657 3.025 17.999 3.025C16.4824 3.025 15.3782 3.24583 14.6865 3.6875C13.9949 4.12917 13.649 4.7625 13.649 5.5875C13.649 6.04583 13.7365 6.42917 13.9115 6.7375C14.0949 7.04583 14.3907 7.30833 14.799 7.525C15.2157 7.74167 15.7865 7.93333 16.5115 8.1L17.824 8.3875C19.774 8.8125 21.1865 9.45 22.0615 10.3C22.9449 11.15 23.3865 12.275 23.3865 13.675C23.3865 14.8333 23.0907 15.8292 22.499 16.6625C21.9074 17.4958 21.049 18.1333 19.924 18.575C18.8074 19.0167 17.4699 19.2375 15.9115 19.2375ZM29.1273 19V0.5H32.6023V16.175H41.9398V19H29.1273ZM60.1813 19L58.3188 13.6875H50.5438L48.6813 19H45.2813L51.9563 0.5H56.9438L63.6188 19H60.1813ZM51.4938 10.9875H57.3688L54.4313 2.5875L51.4938 10.9875ZM81.751 0.5H85.026V19H81.526L72.0635 5.4625V19H68.7885V0.5H72.2885L81.751 14.0375V0.5ZM97.0664 19.1625C95.2831 19.1625 93.5456 19.0583 91.8539 18.85V0.924999C92.7206 0.733332 93.6831 0.583332 94.7414 0.474999C95.8081 0.366665 96.8289 0.312498 97.8039 0.312498C101.271 0.312498 103.879 1.09167 105.629 2.65C107.379 4.2 108.254 6.56667 108.254 9.75C108.254 11.9333 107.841 13.7208 107.016 15.1125C106.2 16.4958 104.966 17.5167 103.316 18.175C101.666 18.8333 99.5831 19.1625 97.0664 19.1625ZM97.9164 16.35C99.4664 16.35 100.737 16.1208 101.729 15.6625C102.729 15.2042 103.475 14.4917 103.966 13.525C104.458 12.55 104.704 11.2833 104.704 9.725C104.704 7.44167 104.15 5.77083 103.041 4.7125C101.933 3.64583 100.241 3.1125 97.9664 3.1125C97.1497 3.1125 96.2706 3.1875 95.3289 3.3375V16.225C96.0706 16.3083 96.9331 16.35 97.9164 16.35ZM210.508 19.1625C208.724 19.1625 206.987 19.0583 205.295 18.85V0.924999C206.162 0.733332 207.124 0.583332 208.183 0.474999C209.249 0.366665 210.27 0.312498 211.245 0.312498C214.712 0.312498 217.32 1.09167 219.07 2.65C220.82 4.2 221.695 6.56667 221.695 9.75C221.695 11.9333 221.283 13.7208 220.458 15.1125C219.641 16.4958 218.408 17.5167 216.758 18.175C215.108 18.8333 213.024 19.1625 210.508 19.1625ZM211.358 16.35C212.908 16.35 214.179 16.1208 215.17 15.6625C216.17 15.2042 216.916 14.4917 217.408 13.525C217.899 12.55 218.145 11.2833 218.145 9.725C218.145 7.44167 217.591 5.77083 216.483 4.7125C215.374 3.64583 213.683 3.1125 211.408 3.1125C210.591 3.1125 209.712 3.1875 208.77 3.3375V16.225C209.512 16.3083 210.374 16.35 211.358 16.35ZM231.224 16.2875H241.174V19H227.799V0.5H241.049V3.2125H231.224V8.175H239.774V10.8875H231.224V16.2875ZM251.681 19.2375C250.748 19.2375 249.827 19.1667 248.919 19.025C248.019 18.8917 247.169 18.6958 246.369 18.4375V15.625C247.169 15.9 248.048 16.1125 249.006 16.2625C249.973 16.4042 250.873 16.475 251.706 16.475C253.098 16.475 254.114 16.2583 254.756 15.825C255.398 15.3833 255.719 14.7333 255.719 13.875C255.719 13.4 255.614 13.0042 255.406 12.6875C255.206 12.3708 254.877 12.1042 254.419 11.8875C253.96 11.6625 253.327 11.4583 252.519 11.275L251.206 10.975C249.414 10.5833 248.094 9.9625 247.244 9.1125C246.402 8.2625 245.981 7.1375 245.981 5.7375C245.981 3.99583 246.627 2.65 247.919 1.7C249.219 0.741666 251.127 0.262499 253.644 0.262499C254.485 0.262499 255.298 0.316666 256.081 0.424999C256.873 0.524999 257.594 0.666666 258.244 0.85V3.65C257.585 3.45 256.864 3.29583 256.081 3.1875C255.306 3.07917 254.535 3.025 253.769 3.025C252.252 3.025 251.148 3.24583 250.456 3.6875C249.764 4.12917 249.419 4.7625 249.419 5.5875C249.419 6.04583 249.506 6.42917 249.681 6.7375C249.864 7.04583 250.16 7.30833 250.569 7.525C250.985 7.74167 251.556 7.93333 252.281 8.1L253.594 8.3875C255.544 8.8125 256.956 9.45 257.831 10.3C258.714 11.15 259.156 12.275 259.156 13.675C259.156 14.8333 258.86 15.8292 258.269 16.6625C257.677 17.4958 256.819 18.1333 255.694 18.575C254.577 19.0167 253.239 19.2375 251.681 19.2375ZM264.897 19V0.5H268.372V19H264.897ZM290.019 10V18.775C288.377 19.05 286.781 19.1875 285.231 19.1875C281.64 19.1875 278.948 18.4125 277.156 16.8625C275.373 15.3042 274.477 12.95 274.469 9.8C274.46 6.65 275.369 4.275 277.194 2.675C279.027 1.06667 281.652 0.262499 285.069 0.262499C286.577 0.262499 288.044 0.433332 289.469 0.774999V3.625C288.11 3.29167 286.731 3.125 285.331 3.125C282.898 3.13333 281.081 3.67083 279.881 4.7375C278.681 5.80417 278.081 7.50417 278.081 9.8375C278.09 12.0458 278.665 13.6833 279.806 14.75C280.948 15.8167 282.685 16.35 285.019 16.35C285.56 16.35 286.144 16.3292 286.769 16.2875V10H290.019ZM309.732 0.5H313.007V19H309.507L300.045 5.4625V19H296.77V0.5H300.27L309.732 14.0375V0.5Z" fill="black"/>
<path d="M147.735 0.5H151.048L145.66 19H141.21L136.823 4.05L132.335 19H127.885L122.485 0.5H126.01L130.348 15.9L134.91 0.5H138.81L143.298 16.0375L147.735 0.5ZM159.885 16.2875H169.835V19H156.46V0.5H169.71V3.2125H159.885V8.175H168.435V10.8875H159.885V16.2875ZM186.43 9.45C187.605 9.675 188.505 10.1625 189.13 10.9125C189.763 11.6542 190.08 12.6292 190.08 13.8375C190.08 15.0125 189.78 15.9917 189.18 16.775C188.588 17.5583 187.621 18.1583 186.28 18.575C184.946 18.9833 183.176 19.1875 180.967 19.1875C180.159 19.1875 179.292 19.1542 178.367 19.0875C177.442 19.0292 176.559 18.9458 175.717 18.8375V0.924999C176.617 0.724999 177.584 0.570833 178.617 0.462499C179.651 0.345832 180.676 0.287499 181.692 0.287499C184.426 0.287499 186.421 0.712499 187.68 1.5625C188.938 2.40417 189.567 3.67917 189.567 5.3875C189.567 6.39583 189.296 7.2625 188.755 7.9875C188.221 8.70417 187.446 9.19167 186.43 9.45ZM182.08 2.7875C181.013 2.7875 180.021 2.875 179.105 3.05V8.25H182.417C183.784 8.25 184.771 8.02917 185.38 7.5875C185.996 7.14583 186.305 6.4625 186.305 5.5375C186.305 4.8875 186.163 4.3625 185.88 3.9625C185.605 3.5625 185.159 3.26667 184.542 3.075C183.926 2.88333 183.105 2.7875 182.08 2.7875ZM181.842 16.6875C183.117 16.6875 184.121 16.5792 184.855 16.3625C185.588 16.1458 186.109 15.8208 186.417 15.3875C186.726 14.9542 186.88 14.3958 186.88 13.7125C186.88 12.7042 186.555 11.9708 185.905 11.5125C185.263 11.0458 184.226 10.8125 182.792 10.8125H179.105V16.5375C179.938 16.6375 180.851 16.6875 181.842 16.6875Z" fill="#4FE9A4"/>
</svg>
