<svg width="180" height="180" viewBox="0 0 180 180" fill="none" xmlns="http://www.w3.org/2000/svg">
<g clip-path="url(#clip0_22_1063)">
<path d="M13.4115 16.5303H7.17334V130.853H13.4115V16.5303Z" fill="#FCD577"/>
<path d="M163.466 166.589H49.1431V172.827H163.466V166.589Z" fill="#FF6F52"/>
<path d="M20.5843 19.6496L10.2923 3.11914L0 19.6496H20.5843Z" fill="#FCD577"/>
<path d="M0 127.736L10.2923 144.266L20.5843 127.736H0Z" fill="#FCD577"/>
<path d="M160.351 180L176.881 169.708L160.351 159.416V180Z" fill="#FF6F52"/>
<path d="M52.2644 180L35.7339 169.708L52.2644 159.416V180Z" fill="#FF6F52"/>
<path d="M176.881 12.9386V3.11914H35.7339V144.266H176.881V23.3354" fill="#CFDCE5"/>
<path d="M32.6152 0V147.385H180V0H32.6152ZM173.762 83.0127V141.147H84.6468V122.936H78.4091V141.147H38.853V6.23812H78.4091V76.7746V83.0127V106.717H84.6472V83.0127H143.284V76.7746H84.6472V6.23812H173.763V76.7746H158.257V83.0127H173.762Z" fill="#415E72"/>
</g>
<defs>
<clipPath id="clip0_22_1063">
<rect width="180" height="180" fill="white"/>
</clipPath>
</defs>
</svg>
