<svg width="86" height="86" viewBox="0 0 86 86" fill="none" xmlns="http://www.w3.org/2000/svg">
<g clip-path="url(#clip0_15_989)">
<path d="M45.8955 56.4624C45.8955 53.3091 46.7197 50.6646 48.368 48.5182C49.5362 47.0418 51.12 46.0708 53.1231 45.6085C55.0939 45.1498 56.9572 45.1176 58.6414 45.5082C59.2147 42.104 58.2831 38.4992 55.9181 34.6793C53.5531 30.8631 50.4893 27.9893 46.7519 26.0686L52.4136 17.9165C55.2802 19.3355 58.0036 21.1343 60.5119 23.3094C63.0561 25.4845 65.3136 27.9857 67.3202 30.8129C69.3269 33.6402 70.8319 36.8329 71.7994 40.4521C72.7669 44.0712 73.0392 47.7621 72.577 51.5604C71.975 56.5771 70.3553 60.5904 67.718 63.5646C65.0842 66.5746 61.7983 68.0796 57.871 68.0796C54.4131 68.0796 51.5428 67.0404 49.271 64.9334C47.0207 62.8694 45.9027 60.0422 45.9027 56.4481L45.8955 56.4588V56.4624ZM13.2011 56.4624C13.2011 53.3091 14.0253 50.6646 15.6737 48.5182C16.8418 47.0132 18.4328 46.0385 20.4287 45.5906C22.4354 45.1462 24.2772 45.1248 25.9471 45.5118C26.5204 42.1434 25.6246 38.5243 23.2596 34.6901C20.8946 30.8918 17.8344 28.0251 14.097 26.0901L19.7443 17.9165C22.611 19.3355 25.3164 21.1343 27.8427 23.3094C30.3797 25.4845 32.6443 27.9857 34.6295 30.8129C36.6218 33.6438 38.1053 36.8329 39.0728 40.4521C40.0511 44.0354 40.3091 47.7621 39.8504 51.5604C39.2592 56.5771 37.6467 60.5904 35.0129 63.5646C32.3899 66.5495 29.1147 68.0438 25.1874 68.0438C21.7223 68.0438 18.8521 67.0046 16.5802 64.9048C14.3335 62.8408 13.2047 60.0135 13.2047 56.4194V56.4553L13.2011 56.4624Z" fill="#AB88FF" fill-opacity="0.5"/>
</g>
<defs>
<clipPath id="clip0_15_989">
<rect width="86" height="86" fill="white" transform="matrix(-1 0 0 1 86 0)"/>
</clipPath>
</defs>
</svg>
