<svg width="99" height="99" viewBox="0 0 99 99" fill="none" xmlns="http://www.w3.org/2000/svg">
<g clip-path="url(#clip0_15_997)">
<path d="M46.167 64.9976C46.167 61.3676 45.2183 58.3234 43.3208 55.8525C41.976 54.153 40.1528 53.0351 37.8469 52.503C35.5782 51.975 33.4332 51.9379 31.4944 52.3875C30.8344 48.4687 31.9069 44.319 34.6294 39.9217C37.3519 35.5286 40.8788 32.2204 45.1811 30.0094L38.6637 20.625C35.3636 22.2585 32.2287 24.3293 29.3412 26.8331C26.4124 29.337 23.8136 32.2162 21.5036 35.4709C19.1936 38.7255 17.4612 42.4009 16.3474 46.5671C15.2337 50.7334 14.9202 54.9821 15.4523 59.3546C16.1453 65.1296 18.0098 69.7496 21.0458 73.1734C24.0777 76.6384 27.8603 78.3709 32.3813 78.3709C36.3619 78.3709 39.666 77.1746 42.2813 74.7491C44.8718 72.3731 46.1588 69.1185 46.1588 64.9811L46.167 64.9935V64.9976ZM83.8035 64.9976C83.8035 61.3676 82.8548 58.3234 80.9573 55.8525C79.6125 54.12 77.781 52.998 75.4834 52.4824C73.1734 51.9709 71.0532 51.9461 69.1309 52.3916C68.4709 48.5141 69.5022 44.3479 72.2247 39.9341C74.9472 35.5616 78.4699 32.2616 82.7723 30.0341L76.2713 20.625C72.9713 22.2585 69.8569 24.3293 66.9488 26.8331C64.0283 29.337 61.4213 32.2162 59.136 35.4709C56.8425 38.7296 55.1348 42.4009 54.021 46.5671C52.8949 50.6921 52.5979 54.9821 53.1259 59.3546C53.8065 65.1296 55.6628 69.7496 58.6946 73.1734C61.7141 76.6095 65.4844 78.3296 70.0054 78.3296C73.9943 78.3296 77.2984 77.1334 79.9136 74.7161C82.5 72.3401 83.7994 69.0855 83.7994 64.9481V64.9894L83.8035 64.9976Z" fill="#AB88FF" fill-opacity="0.5"/>
</g>
<defs>
<clipPath id="clip0_15_997">
<rect width="99" height="99" fill="white"/>
</clipPath>
</defs>
</svg>
