<svg width="87" height="100" viewBox="0 0 87 100" fill="none" xmlns="http://www.w3.org/2000/svg">
<path d="M81.2812 92.0625H4.71875C3.88995 92.0625 3.09509 91.7333 2.50904 91.1472C1.92299 90.5612 1.59375 89.7663 1.59375 88.9375V72.875C1.59375 72.0462 1.92299 71.2513 2.50904 70.6653C3.09509 70.0792 3.88995 69.75 4.71875 69.75H14.2656C15.0944 69.75 15.8893 70.0792 16.4753 70.6653C17.0614 71.2513 17.3906 72.0462 17.3906 72.875C17.3906 73.7038 17.0614 74.4987 16.4753 75.0847C15.8893 75.6708 15.0944 76 14.2656 76H7.84375V85.8125H78.1562V76H31.8438C31.0149 76 30.2201 75.6708 29.634 75.0847C29.048 74.4987 28.7188 73.7038 28.7188 72.875C28.7188 72.0462 29.048 71.2513 29.634 70.6653C30.2201 70.0792 31.0149 69.75 31.8438 69.75H81.2812C82.1101 69.75 82.9049 70.0792 83.491 70.6653C84.077 71.2513 84.4062 72.0462 84.4062 72.875V88.9375C84.4062 89.7663 84.077 90.5612 83.491 91.1472C82.9049 91.7333 82.1101 92.0625 81.2812 92.0625Z" fill="#0074FF"/>
<path d="M39.8748 65.9062C34.4489 65.9014 29.1333 64.3735 24.5328 61.4966C19.9324 58.6197 16.2319 54.5091 13.8524 49.6328C11.4728 44.7565 10.5099 39.3101 11.0731 33.9135C11.6363 28.5168 13.703 23.3866 17.038 19.1066C20.3731 14.8267 24.8425 11.5688 29.9379 9.70366C35.0332 7.83855 40.5497 7.44114 45.8597 8.55665C51.1698 9.67216 56.0601 12.2558 59.9742 16.0136C63.8883 19.7713 66.6689 24.5523 67.9998 29.8125L69.8436 27.7812C70.1196 27.4735 70.4535 27.223 70.8262 27.0443C71.199 26.8656 71.6033 26.762 72.0161 26.7395C72.4289 26.717 72.8421 26.776 73.232 26.9132C73.622 27.0504 73.9811 27.2631 74.2889 27.5391C74.5967 27.815 74.8471 28.1489 75.0258 28.5217C75.2046 28.8945 75.3082 29.2988 75.3307 29.7116C75.3531 30.1243 75.2941 30.5375 75.1569 30.9275C75.0197 31.3175 74.8071 31.6766 74.5311 31.9844L67.9998 39.0625C67.5761 39.5287 67.0212 39.856 66.4082 40.0013C65.7951 40.1467 65.1524 40.1033 64.5644 39.8769C63.9764 39.6505 63.4706 39.2516 63.1133 38.7326C62.756 38.2137 62.564 37.5988 62.5623 36.9687C62.5747 32.4639 61.2494 28.0568 58.7543 24.3061C56.2593 20.5553 52.7069 17.6297 48.5473 15.9C44.3877 14.1704 39.8083 13.7146 35.3894 14.5904C30.9705 15.4662 26.9111 17.6342 23.7257 20.8197C20.5403 24.0051 18.3723 28.0644 17.4965 32.4833C16.6207 36.9022 17.0765 41.4816 18.8061 45.6412C20.5358 49.8008 23.4614 53.3532 27.2121 55.8482C30.9629 58.3433 35.37 59.6686 39.8748 59.6562C42.9233 59.6679 45.9424 59.0605 48.7491 57.8706C51.5558 56.6808 54.0917 54.9334 56.203 52.7344C56.4882 52.4389 56.8288 52.2025 57.2054 52.0387C57.582 51.8748 57.9871 51.7868 58.3977 51.7795C58.8083 51.7723 59.2163 51.8459 59.5985 51.9964C59.9806 52.1468 60.3294 52.371 60.6248 52.6562C60.9203 52.9415 61.1567 53.2821 61.3206 53.6587C61.4844 54.0352 61.5725 54.4404 61.5797 54.851C61.587 55.2616 61.5133 55.6696 61.3628 56.0518C61.2124 56.4339 60.9882 56.7826 60.703 57.0781C58.0098 59.8831 54.775 62.1118 51.1948 63.6294C47.6145 65.1469 43.7634 65.9215 39.8748 65.9062V65.9062Z" fill="#FFB300"/>
<path d="M65.6721 40.0469C65.1776 40.0464 64.6903 39.9286 64.2502 39.7031L56.9065 35.9375C56.5413 35.7497 56.2166 35.4919 55.951 35.1787C55.6854 34.8654 55.4841 34.503 55.3586 34.1119C55.2331 33.7209 55.1858 33.309 55.2195 32.8997C55.2532 32.4904 55.3672 32.0918 55.5549 31.7266C55.7427 31.3613 56.0005 31.0366 56.3138 30.7711C56.627 30.5055 56.9895 30.3042 57.3805 30.1787C57.7715 30.0532 58.1834 30.0059 58.5927 30.0396C59.002 30.0733 59.4006 30.1873 59.7659 30.375L67.094 34.1406C67.718 34.4603 68.2163 34.9805 68.5089 35.6176C68.8015 36.2547 68.8714 36.9717 68.7073 37.6533C68.5432 38.3349 68.1547 38.9415 67.6042 39.3757C67.0537 39.8098 66.3732 40.0462 65.6721 40.0469V40.0469Z" fill="#FFB300"/>
</svg>
