<svg width="61" height="61" viewBox="0 0 61 61" fill="none" xmlns="http://www.w3.org/2000/svg">
<g clip-path="url(#clip0_15_788)">
<path d="M58.5557 2.44601C60.0381 7.98868 59.8257 13.8902 57.92 19.3318H57.9186L41.6699 3.08318V3.08172C47.1115 1.17606 53.0131 0.963668 58.5557 2.44601Z" fill="#FF7124"/>
<path d="M13.2139 30.4567L25.9778 15.6011H25.9793L30.917 9.85333C34.056 6.71434 37.7428 4.45713 41.6699 3.08172V3.08318L57.9185 19.3318H57.92C56.5446 23.2589 54.2874 26.9457 51.1484 30.0847L45.4006 35.0224L30.5435 47.7864L26.2122 43.455L21.8794 39.1223L17.5466 34.7895L13.2139 30.4567ZM43.3734 28.3284C46.3293 25.374 46.3293 20.5813 43.3734 17.6268C40.419 14.6709 35.6262 14.6709 32.6718 17.6268C29.7159 20.5813 29.7159 25.374 32.6718 28.3284C35.6262 31.2843 40.419 31.2843 43.3734 28.3284Z" fill="#F2D59F"/>
<path d="M45.4006 35.0224C45.6554 41.7017 43.2327 48.466 38.1339 53.5648C36.568 55.1292 34.8469 56.4431 33.0174 57.5036L30.5435 47.7864L45.4006 35.0224Z" fill="#F2D59F"/>
<path d="M43.3736 17.6268C46.3295 20.5813 46.3295 25.374 43.3736 28.3284C40.4191 31.2843 35.6264 31.2843 32.672 28.3284C29.7161 25.374 29.7161 20.5813 32.672 17.6268C35.6264 14.6709 40.4191 14.6709 43.3736 17.6268Z" fill="#8ECAC1"/>
<path d="M30.5433 47.7864L24.6931 49.941C23.0847 50.5343 21.2787 50.1373 20.0673 48.9245L19.064 47.9211L26.212 43.455L30.5433 47.7864Z" fill="#E6B263"/>
<path d="M26.2123 43.455L19.0643 47.9211H19.0628L16.0718 44.9301L21.8796 39.1223L26.2123 43.455Z" fill="#E6B263"/>
<path d="M25.9778 15.6011L13.2138 30.4567L3.49805 27.9842C4.55854 26.1547 5.87243 24.4336 7.4368 22.8678C12.5356 17.7689 19.297 15.3462 25.9778 15.6011Z" fill="#F2D59F"/>
<path d="M21.8794 39.1223L16.0716 44.9301L13.0806 41.9375L17.5466 34.7895L21.8794 39.1223Z" fill="#E6B263"/>
<path d="M17.5465 34.7895L13.0805 41.9375L12.0756 40.9342C10.8643 39.7214 10.4673 37.9168 11.0591 36.3085L13.2137 30.4567L17.5465 34.7895Z" fill="#E6B263"/>
<path d="M4.23035 49.7228C3.85552 49.7228 3.48054 49.5797 3.19462 49.2937C2.62263 48.7217 2.62263 47.7943 3.19462 47.2221L6.20325 44.2135C6.77524 43.6416 7.70273 43.6416 8.27486 44.2135C8.84685 44.7855 8.84685 45.713 8.27486 46.2851L5.26624 49.2937C4.98017 49.5797 4.60533 49.7228 4.23035 49.7228Z" fill="#5E2A41"/>
<path d="M1.4648 60.9985C1.08982 60.9985 0.714989 60.8554 0.42892 60.5694C-0.143071 59.9974 -0.142924 59.0699 0.429066 58.4979L10.4583 48.4701C11.0303 47.8983 11.9578 47.8983 12.5298 48.4702C13.1018 49.0422 13.1016 49.9697 12.5295 50.5417L2.50024 60.5695C2.21447 60.8556 1.83964 60.9985 1.4648 60.9985Z" fill="#5E2A41"/>
<path d="M10.7352 60.2398C10.3603 60.2398 9.98557 60.0967 9.6995 59.8108C9.12751 59.2388 9.12751 58.3113 9.6995 57.7391L14.7134 52.7254C15.2854 52.1536 16.2129 52.1537 16.7849 52.7254C17.3569 53.2974 17.3569 54.2249 16.7849 54.797L11.771 59.8108C11.485 60.0967 11.1101 60.2398 10.7352 60.2398Z" fill="#5E2A41"/>
<path d="M30.5434 49.2511C30.1684 49.2511 29.7937 49.108 29.5077 48.8221L12.178 31.4925C11.606 30.9205 11.606 29.993 12.178 29.4208C12.75 28.849 13.6775 28.849 14.2496 29.4208L31.5793 46.7506C32.1513 47.3226 32.1513 48.2501 31.5793 48.8222C31.2932 49.1082 30.9182 49.2511 30.5434 49.2511Z" fill="#5E2A41"/>
<path d="M38.0224 32.0101C35.6093 32.0101 33.3411 31.0703 31.6354 29.3639C29.9295 27.6587 28.9897 25.3905 28.9897 22.9775C28.9897 20.5644 29.9295 18.2962 31.6358 16.5905C33.341 14.8846 35.6092 13.9449 38.0222 13.9449C40.4353 13.9449 42.7035 14.8846 44.4092 16.591C46.1149 18.2961 47.0547 20.5643 47.0547 22.9773C47.0547 25.3901 46.1151 27.6581 44.4092 29.3637C44.409 29.364 44.409 29.3639 44.4086 29.3643C42.7032 31.0704 40.4351 32.0101 38.0224 32.0101ZM38.0224 16.8747C36.3921 16.8747 34.8596 17.5095 33.7076 18.6623C32.5543 19.8149 31.9194 21.3473 31.9194 22.9776C31.9194 24.6079 32.5543 26.1403 33.707 27.2924C34.8596 28.4457 36.3921 29.0806 38.0224 29.0806C39.6526 29.0806 41.1851 28.4457 42.3371 27.293C42.3374 27.2928 42.3376 27.2927 42.3377 27.2924C43.4905 26.1403 44.1253 24.6079 44.1253 22.9776C44.1253 21.3473 43.4905 19.8149 42.3377 18.6629C41.1851 17.5095 39.6526 16.8747 38.0224 16.8747Z" fill="#5E2A41"/>
<path d="M13.0789 43.4025C12.8138 43.4025 12.5454 43.3307 12.304 43.1797C11.6179 42.7511 11.4094 41.8473 11.8379 41.1614L16.304 34.0133C16.7327 33.3272 17.6365 33.1183 18.3225 33.5472C19.0086 33.9758 19.2171 34.8796 18.7885 35.5655L14.3225 42.7136C14.0446 43.1583 13.5672 43.4025 13.0789 43.4025Z" fill="#5E2A41"/>
<path d="M16.0712 46.3948C15.6964 46.3948 15.3216 46.2517 15.0355 45.9658C14.4635 45.3938 14.4634 44.4663 15.0354 43.8942L20.8432 38.0864C21.4152 37.5145 22.3426 37.5145 22.9146 38.0864C23.4866 38.6584 23.4868 39.5859 22.9148 40.1579L17.107 45.9656C16.8211 46.2519 16.4461 46.3948 16.0712 46.3948Z" fill="#5E2A41"/>
<path d="M19.0654 49.386C18.577 49.386 18.0997 49.142 17.8218 48.6973C17.3932 48.0112 17.6019 47.1074 18.2879 46.679L25.4359 42.2129C26.1219 41.7839 27.0256 41.9928 27.4544 42.679C27.883 43.3651 27.6742 44.2687 26.9883 44.6973L19.8402 49.1634C19.5987 49.3143 19.3305 49.386 19.0654 49.386Z" fill="#5E2A41"/>
<path d="M25.9783 17.0658C25.6404 17.0658 25.3009 16.9495 25.0245 16.7121C24.4109 16.1849 24.3407 15.2602 24.8679 14.6465L29.8056 8.89874C30.3326 8.2853 31.2573 8.21499 31.8712 8.7423C32.4848 9.26947 32.555 10.1942 32.0276 10.8078L27.0899 16.5555C26.8003 16.8927 26.3905 17.0658 25.9783 17.0658Z" fill="#5E2A41"/>
<path d="M23.1822 51.675C21.6518 51.675 20.1468 51.0767 19.0311 49.9595L18.0669 48.9954C18.0533 48.9828 18.04 48.97 18.027 48.9568L11.0409 41.9706C9.43084 40.3585 8.89898 37.938 9.68468 35.8027L11.8394 29.9506C11.8998 29.7866 11.989 29.6347 12.1029 29.5023L24.8668 14.6466C25.3943 14.0332 26.3188 13.963 26.9324 14.4902C27.546 15.0175 27.616 15.9422 27.0889 16.5558L14.497 31.2108L12.4338 36.8145C12.0409 37.8822 12.3072 39.0931 13.1122 39.8992L20.0599 46.847C20.0734 46.8596 20.0869 46.8723 20.0999 46.8855L21.1033 47.8889C21.9084 48.6951 23.1182 48.9608 24.1863 48.5671L29.7893 46.5034L50.1938 28.9738C50.8077 28.4465 51.7324 28.5169 52.2594 29.1302C52.7867 29.7438 52.7165 30.6687 52.103 31.1958L31.4978 48.8974C31.3654 49.0112 31.2137 49.1005 31.0497 49.1609L25.1993 51.3156C24.5433 51.5575 23.8601 51.675 23.1822 51.675Z" fill="#5E2A41"/>
<path d="M51.148 31.5494C50.7732 31.5494 50.3984 31.4063 50.1123 31.1204C49.5403 30.5484 49.5403 29.6209 50.1123 29.0488C53.025 26.1362 55.1865 22.7042 56.5372 18.8476C58.2562 13.9389 58.5331 8.70407 57.3481 3.65312C52.2976 2.46827 47.0624 2.74512 42.1536 4.46402C38.297 5.81468 34.8648 7.97638 31.9523 10.8889C31.3803 11.4608 30.4529 11.4609 29.8807 10.8889C29.3087 10.3169 29.3087 9.38944 29.8807 8.8173C33.1068 5.5913 36.9102 3.19626 41.1851 1.69913C46.9209 -0.309213 53.0582 -0.5405 58.9338 1.03105C59.4398 1.16639 59.835 1.56158 59.9703 2.06751C61.5417 7.94327 61.3107 14.0806 59.3019 19.8161C57.8048 24.091 55.4099 27.8943 52.1838 31.1204C51.8978 31.4063 51.523 31.5494 51.148 31.5494Z" fill="#5E2A41"/>
<path d="M57.9184 20.7967C57.5435 20.7967 57.1688 20.6536 56.8827 20.3677L40.6341 4.11892C40.0621 3.54693 40.0621 2.61944 40.6341 2.0473C41.2065 1.47531 42.1337 1.4756 42.7057 2.0473L58.9543 18.2961C59.5263 18.8681 59.5263 19.7956 58.9543 20.3677C58.6681 20.6536 58.2933 20.7967 57.9184 20.7967Z" fill="#5E2A41"/>
<path d="M13.2152 31.9215C13.0934 31.9215 12.9706 31.9062 12.8524 31.8762L3.13661 29.4037C2.69176 29.2905 2.32557 28.9751 2.14775 28.5521C1.96978 28.1289 2.00054 27.6467 2.23065 27.2496C3.36995 25.2842 4.77275 23.4617 6.4004 21.8326C11.5682 16.6648 18.7219 13.8577 26.0265 14.1372C26.8129 14.163 27.4431 14.8085 27.4431 15.6011C27.4431 16.4099 26.788 17.0658 25.979 17.0658H25.9776C25.959 17.0658 25.9404 17.0655 25.9218 17.0648C19.4273 16.8159 13.0663 19.3096 8.47246 23.9035C7.49341 24.8833 6.60605 25.9416 5.82108 27.0639L13.5448 29.0294C14.1944 29.1794 14.6793 29.7615 14.6793 30.4566C14.6793 31.2656 14.0242 31.9215 13.2152 31.9215Z" fill="#5E2A41"/>
<path d="M33.0174 58.9684C32.8248 58.9684 32.6317 58.9304 32.4497 58.8538C32.0263 58.6759 31.7111 58.3098 31.5979 57.8651L29.1238 48.1479C28.9241 47.3638 29.398 46.5665 30.1819 46.367C30.9654 46.1669 31.7631 46.6411 31.9628 47.425L33.9373 55.1806C35.0597 54.3957 36.1182 53.508 37.0984 52.5288C41.6919 47.9353 44.1846 41.5746 43.9365 35.0782C43.9057 34.2698 44.536 33.5896 45.3443 33.5587C46.1512 33.5245 46.8331 34.1582 46.864 34.9664C47.1427 42.2752 44.3383 49.4317 39.1693 54.6007C37.5399 56.2285 35.7173 57.6315 33.7517 58.7709C33.5258 58.902 33.272 58.9684 33.0174 58.9684Z" fill="#5E2A41"/>
</g>
<defs>
<clipPath id="clip0_15_788">
<rect width="61" height="61" fill="white"/>
</clipPath>
</defs>
</svg>
