<svg width="62" height="62" viewBox="0 0 62 62" fill="none" xmlns="http://www.w3.org/2000/svg">
<g clip-path="url(#clip0_33_1386)">
<path d="M31 0C13.8792 0 0 13.8792 0 31C0 48.1208 13.8792 62 31 62C48.1208 62 62 48.1208 62 31C62 13.8792 48.1208 0 31 0ZM46.8141 27.4476L30.6061 43.6556C29.6917 44.57 28.4512 45.0838 27.1579 45.0838C25.8647 45.0838 24.6243 44.57 23.7098 43.6555L15.1862 35.1318C13.2819 33.2275 13.2819 30.14 15.1864 28.2356C17.0908 26.3314 20.1783 26.3312 22.0827 28.2357L27.1581 33.3113L39.9178 20.5515C41.8223 18.6472 44.9097 18.6472 46.8142 20.5517C48.7183 22.4556 48.7183 25.5433 46.8141 27.4476Z" fill="black"/>
</g>
<defs>
<clipPath id="clip0_33_1386">
<rect width="62" height="62" fill="white"/>
</clipPath>
</defs>
</svg>
