<svg width="47" height="48" viewBox="0 0 47 48" fill="none" xmlns="http://www.w3.org/2000/svg">
<path d="M23.4998 4C12.729 4 3.9165 13 3.9165 24C3.9165 35 12.729 44 23.4998 44C34.2707 44 43.0832 35 43.0832 24C43.0832 13 34.2707 4 23.4998 4ZM23.4998 40C14.8636 40 7.83317 32.82 7.83317 24C7.83317 15.18 14.8636 8 23.4998 8C32.1361 8 39.1665 15.18 39.1665 24C39.1665 32.82 32.1361 40 23.4998 40ZM32.4886 15.16L19.5832 28.34L14.5111 23.18L11.7498 26L19.5832 34L35.2498 18L32.4886 15.16Z" fill="#AB88FF"/>
</svg>
