<svg width="148" height="148" viewBox="0 0 148 148" fill="none" xmlns="http://www.w3.org/2000/svg">
<g clip-path="url(#clip0_22_1138)">
<path d="M145.608 57.6424C145.608 48.9023 138.718 41.7416 130.084 41.3057V14.8001C130.084 7.91698 124.504 2.33691 117.621 2.33691H30.3788C23.4957 2.33691 17.9156 7.91698 17.9156 14.8001V78.6974C9.28247 79.1336 2.39209 86.2919 2.39209 95.0317C2.39209 103.772 9.28189 110.932 17.9156 111.368V133.2C17.9156 140.083 23.4957 145.663 30.3788 145.663H117.621C124.504 145.663 130.084 140.083 130.084 133.2V73.9764C138.717 73.5402 145.608 66.3819 145.608 57.6424ZM7.06565 95.0317C7.06565 88.8701 11.8612 83.8112 17.9153 83.3814V106.683C11.8612 106.253 7.06565 101.193 7.06565 95.0317ZM130.084 69.2925V45.9911C136.139 46.4207 140.934 51.4801 140.934 57.6424C140.934 63.804 136.138 68.8629 130.084 69.2925Z" fill="#F2EFE2"/>
<path d="M28.0425 41.284C28.0425 39.9934 29.0889 38.9473 30.3793 38.9473H58.4215C59.7122 38.9473 60.7583 39.9937 60.7583 41.284C60.7583 42.5747 59.7119 43.6208 58.4215 43.6208H30.3793C29.0886 43.6208 28.0425 42.5747 28.0425 41.284ZM117.621 104.379H89.579C88.2883 104.379 87.2422 105.425 87.2422 106.716C87.2422 108.006 88.2886 109.052 89.579 109.052H117.621C118.912 109.052 119.958 108.006 119.958 106.716C119.958 105.425 118.912 104.379 117.621 104.379ZM61.537 82.5682H30.3793C29.0886 82.5682 28.0425 83.6147 28.0425 84.905C28.0425 86.1957 29.0889 87.2418 30.3793 87.2418H61.537C62.8277 87.2418 63.8738 86.1954 63.8738 84.905C63.8738 83.6147 62.8277 82.5682 61.537 82.5682ZM117.621 82.5682H89.579C88.2883 82.5682 87.2422 83.6147 87.2422 84.905C87.2422 86.1957 88.2886 87.2418 89.579 87.2418H117.621C118.912 87.2418 119.958 86.1954 119.958 84.905C119.958 83.6147 118.912 82.5682 117.621 82.5682ZM59.2002 63.0947C59.2002 64.3853 60.2466 65.4315 61.537 65.4315H117.621C118.912 65.4315 119.958 64.3851 119.958 63.0947C119.958 61.804 118.912 60.7579 117.621 60.7579H61.537C60.2466 60.7576 59.2002 61.804 59.2002 63.0947ZM30.3793 65.4315H42.8425C44.1331 65.4315 45.1793 64.3851 45.1793 63.0947C45.1793 61.804 44.1329 60.7579 42.8425 60.7579H30.3793C29.0886 60.7579 28.0425 61.8043 28.0425 63.0947C28.0425 64.3851 29.0886 65.4315 30.3793 65.4315ZM51.878 60.7576C50.5873 60.7576 49.5412 61.804 49.5412 63.0944C49.5412 64.3851 50.5876 65.4312 51.878 65.4312H52.1896C53.4803 65.4312 54.5264 64.3848 54.5264 63.0944C54.5264 61.8037 53.48 60.7576 52.1896 60.7576H51.878ZM71.196 82.5682H70.8844C69.5938 82.5682 68.5476 83.6147 68.5476 84.905C68.5476 86.1957 69.5941 87.2418 70.8844 87.2418H71.196C72.4867 87.2418 73.5328 86.1954 73.5328 84.905C73.5328 83.6147 72.4867 82.5682 71.196 82.5682ZM80.2319 82.5682H79.9202C78.6296 82.5682 77.5835 83.6147 77.5835 84.905C77.5835 86.1957 78.6299 87.2418 79.9202 87.2418H80.2319C81.5225 87.2418 82.5686 86.1954 82.5686 84.905C82.5686 83.6147 81.5225 82.5682 80.2319 82.5682Z" fill="#BFBBA3"/>
<path d="M76.2032 108.455L64.0857 118.017C63.4773 118.498 62.4907 118.498 61.8825 118.017C61.5903 117.787 61.4264 117.474 61.4264 117.148V111.39H20.3081H18.7503C9.73043 111.39 2.39258 104.052 2.39258 95.032C2.39258 86.2734 9.31216 79.1018 17.9716 78.6936V83.3765C11.8909 83.7791 7.06643 88.8513 7.06643 95.0317C7.06643 101.475 12.3077 106.716 18.7506 106.716H20.3084H61.4267V96.284C61.4267 95.9582 61.5908 95.6451 61.8828 95.4148C62.4913 94.9346 63.4778 94.9346 64.086 95.4148L76.2035 104.978C77.4199 105.937 77.4199 107.494 76.2032 108.455ZM129.25 41.2843H127.692H86.4632V30.8524C86.4632 30.5266 86.299 30.2135 86.0071 29.9831C85.3986 29.503 84.4123 29.503 83.8038 29.9831L71.6863 39.5459C70.4697 40.5062 70.4697 42.0628 71.6863 43.023L83.8038 52.5858C84.4123 53.0659 85.3986 53.0659 86.0071 52.5858C86.2993 52.3551 86.4632 52.0424 86.4632 51.7166V45.9582H127.692H129.25C135.693 45.9582 140.934 51.1995 140.934 57.6424C140.934 63.8231 136.109 68.895 130.029 69.2977V73.9805C138.688 73.5723 145.608 66.401 145.608 57.6421C145.608 48.6225 138.27 41.2843 129.25 41.2843Z" fill="#FC8059"/>
<path d="M132.365 38.9633V14.8C132.365 6.63948 125.726 0 117.565 0H30.3235C22.163 0 15.5235 6.63948 15.5235 14.8V76.3576C6.88952 76.7935 0 83.9547 0 92.6948C0 101.715 7.33785 109.053 16.3578 109.053H59.0338V117.147C59.0338 118.191 59.524 119.176 60.3785 119.851C60.3788 119.851 60.3791 119.851 60.3791 119.852C61.8325 120.998 64.0242 120.998 65.4776 119.852L77.5951 110.289C78.7403 109.385 79.3968 108.083 79.3968 106.716C79.3968 105.349 78.7403 104.047 77.5954 103.143L65.4779 93.5805C64.0245 92.4332 61.8325 92.4335 60.3791 93.5805C59.524 94.2555 59.0338 95.2409 59.0338 96.2844V104.379H20.1971V14.8C20.1971 9.21647 24.74 4.67356 30.3235 4.67356H117.566C123.15 4.67356 127.692 9.21647 127.692 14.8V38.9474H88.7445V30.8525C88.7445 29.8087 88.254 28.823 87.3983 28.1483C85.9449 27.0019 83.7535 27.0019 82.3007 28.1486L70.1832 37.7114C69.0382 38.615 68.3818 39.9172 68.3815 41.2842C68.3815 42.6512 69.038 43.9534 70.1832 44.8573L82.3004 54.4195C83.7538 55.5671 85.9461 55.5668 87.3978 54.4204C88.2537 53.7457 88.7445 52.76 88.7445 51.7159V43.621H131.642C138.085 43.621 143.326 48.8623 143.326 55.3052C143.326 61.5047 138.472 66.5925 132.365 66.9674V55.3052C132.365 54.0145 131.32 52.9684 130.029 52.9684C128.738 52.9684 127.692 54.0148 127.692 55.3052V133.2C127.692 138.784 123.149 143.326 117.565 143.326H30.3235C24.74 143.326 20.1971 138.784 20.1971 133.2V120.737C20.1971 119.446 19.1507 118.4 17.8603 118.4C16.5699 118.4 15.5235 119.446 15.5235 120.737V133.2C15.5235 141.361 22.163 148 30.3235 148H117.566C125.726 148 132.366 141.361 132.366 133.2V71.6473C141.051 71.2678 148 64.0828 148 55.3052C148 46.5275 141.051 39.3429 132.365 38.9633ZM15.5235 104.349C9.46853 103.92 4.67385 98.8571 4.67385 92.6945C4.67385 86.532 9.46882 81.4691 15.5235 81.0398V104.349ZM63.7076 98.1367L74.579 106.716L63.7076 115.295V98.1367ZM84.0709 49.863L73.1996 41.2842L84.0709 32.7051V49.863Z" fill="#4C4C4C"/>
</g>
<defs>
<clipPath id="clip0_22_1138">
<rect width="148" height="148" fill="white"/>
</clipPath>
</defs>
</svg>
