<svg width="184" height="184" viewBox="0 0 184 184" fill="none" xmlns="http://www.w3.org/2000/svg">
<g clip-path="url(#clip0_22_1089)">
<path d="M2.15625 147.12V36.8838L158.217 37.1109V147.12H2.15625Z" fill="white"/>
<path d="M4.3125 39.0429L156.061 39.2614V144.964H4.3125V39.0429ZM0 34.7246V149.276H160.373V34.9546L0 34.7246Z" fill="#333333"/>
<path d="M166.101 55.1602L121.452 126.043L139.441 137.377L184 66.6372L166.101 55.1602Z" fill="#E21B1B"/>
<g opacity="0.2">
<path d="M5.77295 74.8968V40.4863H40.1838L5.77295 74.8968Z" fill="white"/>
</g>
<path d="M166.101 55.1602L121.452 126.043L130.445 131.638L175.004 60.8987L166.101 55.1602Z" fill="#F91E1E"/>
<path d="M32.2631 91.5855C35.8928 88.1646 40.0105 85.3025 44.4818 83.0927C47.3158 81.56 50.4305 80.6163 53.6387 80.3184C54.2529 80.3324 54.8351 80.594 55.2544 81.0429C55.75 81.5223 56.1511 82.0912 56.4361 82.719C56.6689 83.1567 56.8163 83.6347 56.8702 84.1277C56.8989 84.5723 56.6768 84.996 56.2952 85.226C55.6476 85.5771 54.968 85.8664 54.2654 86.0885L55.0101 87.7876C55.3148 88.4776 55.5495 89.0361 55.7144 89.4637C55.8668 89.8289 55.9509 90.2184 55.9617 90.6137C55.6045 91.9959 54.9134 93.2695 53.9492 94.3225C52.6076 96.1319 51.6682 97.4649 51.1317 98.3216C50.5657 99.2768 50.2854 100.374 50.3238 101.484C50.3238 103.527 51.2621 104.549 53.1384 104.549C55.0726 104.549 58.0971 102.739 62.2119 99.1209V101.648C55.2257 109.409 50.2268 113.289 47.2159 113.289C46.3157 113.373 45.4392 112.971 44.9159 112.234C44.3988 111.276 44.162 110.192 44.2317 109.106C44.4858 105.834 45.2836 102.628 46.5921 99.6182C42.5671 104.094 39.5702 107.276 37.6019 109.166C36.3761 110.659 34.6569 111.664 32.7547 112.001C32.147 112.001 31.388 111.477 30.4777 110.428C29.4603 109.203 28.6424 107.826 28.0541 106.346C27.354 104.702 26.9943 102.934 26.9961 101.148C26.972 100.052 27.0978 98.9581 27.3698 97.8961C27.6713 96.9211 28.1597 96.0141 28.8073 95.2252C29.8757 93.9351 31.0301 92.7193 32.2631 91.5855ZM52.1006 87.0286C46.7243 89.3124 41.5831 92.1156 36.7509 95.3977C34.1843 96.8956 32.4841 99.5262 32.1739 102.482C32.1448 103.234 32.3012 103.981 32.6282 104.658C32.8399 105.162 33.3275 105.494 33.8731 105.506C34.4434 105.419 34.9918 105.224 35.4888 104.931C38.4821 103.142 41.168 100.883 43.4439 98.2411C45.8496 95.4887 48.7368 91.7512 52.1063 87.0286H52.1006Z" fill="#666666"/>
<path d="M89.2627 99.0839V101.775C87.2757 103.264 84.9337 104.207 82.4691 104.509C81.4851 104.498 80.5084 104.346 79.5682 104.055C77.6754 106.573 75.5314 108.892 73.1685 110.975C71.6954 112.317 69.795 113.095 67.8037 113.171C65.6938 113.15 63.8053 111.858 63.0197 109.9C61.8255 107.365 61.2512 104.582 61.3436 101.781C61.5139 96.7483 62.8763 91.8285 65.3197 87.4258C67.9733 82.2422 71.1887 77.3654 74.9078 72.884C78.1947 68.8328 81.8344 65.0802 85.784 61.6715C87.7354 59.6026 90.1903 58.0749 92.9082 57.2383C94.0967 57.2383 94.6907 58.0526 94.6907 59.682C94.6907 66.9195 85.4109 79.5407 66.8521 97.5458C66.7964 98.0421 66.7687 99.0224 66.7687 100.487C66.7687 104.299 67.7904 106.205 69.8335 106.202C70.729 106.166 71.5847 105.823 72.2571 105.231C73.5832 104.078 74.8317 102.839 75.9946 101.522C75.4599 100.488 75.1228 99.3642 74.9998 98.207C75.0994 96.4109 75.7499 94.6895 76.8629 93.2764C78.0578 91.56 79.487 90.0194 81.1092 88.6994C82.0544 87.7445 83.2504 87.0765 84.5592 86.7732C85.6902 86.7732 86.2566 87.5875 86.2584 89.2169C86.1969 90.7532 85.867 92.2673 85.2837 93.6904C84.4856 95.746 83.5372 97.7398 82.4461 99.656C82.8037 99.9629 83.1767 100.251 83.5645 100.519C83.9451 100.722 84.3756 100.815 84.8065 100.786C86.4262 100.666 87.9754 100.074 89.2627 99.0839ZM68.2206 92.8624C69.7713 91.5014 71.2174 90.0262 72.5475 88.4493C73.9986 86.753 76.1182 84.1501 78.907 80.6408C81.5904 77.2713 83.6985 74.4617 85.232 72.2113C86.4883 70.4072 87.6405 68.5324 88.682 66.5964C89.2581 65.6577 89.6483 64.6173 89.832 63.5317C89.832 63.1177 89.7227 62.9107 89.5014 62.9107C88.8936 62.9107 87.6308 63.9112 85.7121 65.9122C83.3287 68.4914 81.1337 71.2395 79.1456 74.1347C75.7553 78.9532 73.3 82.5746 71.7798 84.9993C70.2514 87.452 69.0547 90.0956 68.2206 92.8624Z" fill="#666666"/>
<path d="M114.201 99.0842V101.859C111.248 104.757 108.838 107.007 106.973 108.609C105.368 110.033 103.618 111.286 101.752 112.347C100.309 113.184 98.6763 113.639 97.0084 113.672C95.4315 113.647 93.9279 113 92.8253 111.872C91.478 110.55 90.4563 108.933 89.8411 107.149C89.1162 105.165 88.7511 103.068 88.7629 100.956C88.7306 99.2046 89.159 97.4756 90.0049 95.9418C91.3537 93.8503 92.9687 91.9423 94.8091 90.2666C97.1888 87.8588 99.8206 85.7133 102.658 83.8668C104.332 82.6381 106.295 81.8608 108.356 81.6099C109.305 81.5927 110.219 81.9672 110.883 82.6449C111.573 83.3357 111.946 84.2801 111.915 85.2554C111.76 86.6017 111.292 87.8936 110.55 89.0274C109.704 90.5616 108.674 91.9876 107.485 93.2738C106.35 94.4734 105.452 95.0736 104.791 95.0736C104.072 95.0736 103.713 94.6901 103.713 93.9236C103.742 93.7022 103.765 93.4952 103.779 93.3026C103.793 93.1099 103.796 92.9173 103.796 92.7276C103.796 92.3969 103.678 92.2101 103.448 92.1698C103.13 92.1493 102.818 92.2618 102.586 92.4803C99.8241 94.4145 97.9324 95.774 96.9107 96.5599C95.9975 97.2395 95.1821 98.0413 94.4871 98.9433C93.9203 99.6649 93.607 100.553 93.5958 101.47C93.5383 102.958 94.1104 104.402 95.1713 105.447C96.2746 106.49 97.7534 107.043 99.2711 106.979C101.497 106.833 103.654 106.142 105.55 104.966C108.58 103.231 111.473 101.265 114.201 99.0842Z" fill="#666666"/>
</g>
<defs>
<clipPath id="clip0_22_1089">
<rect width="184" height="184" fill="white"/>
</clipPath>
</defs>
</svg>
