<svg width="109" height="108" viewBox="0 0 109 108" fill="none" xmlns="http://www.w3.org/2000/svg">
<path d="M18.1485 3.12812C18.6931 3.2348 19.2211 2.87982 19.3277 2.33525C19.4344 1.79068 19.0794 1.26274 18.5349 1.15606C17.9903 1.04937 17.4623 1.40435 17.3557 1.94892C17.249 2.49349 17.604 3.02144 18.1485 3.12812Z" fill="black"/>
<path d="M27.0167 4.86542C27.5613 4.9721 28.0892 4.61712 28.1959 4.07255C28.3026 3.52798 27.9476 3.00004 27.403 2.89336C26.8585 2.78668 26.3305 3.14165 26.2238 3.68622C26.1171 4.23079 26.4721 4.75874 27.0167 4.86542Z" fill="black"/>
<path d="M35.8858 6.60273C36.4304 6.70941 36.9584 6.35443 37.065 5.80986C37.1717 5.26529 36.8167 4.73735 36.2722 4.63067C35.7276 4.52398 35.1997 4.87896 35.093 5.42353C34.9863 5.9681 35.3413 6.49605 35.8858 6.60273Z" fill="black"/>
<path d="M45.9332 7.54716C45.8269 8.08977 45.2966 8.44633 44.754 8.34003C44.2114 8.23373 43.8548 7.70344 43.9611 7.16083C44.0674 6.61822 44.5977 6.26167 45.1403 6.36797C45.6829 6.47427 46.0395 7.00455 45.9332 7.54716Z" fill="black"/>
<path d="M54.8014 9.28447C54.6951 9.82708 54.1648 10.1836 53.6222 10.0773C53.0796 9.97104 52.723 9.44075 52.8293 8.89814C52.9356 8.35553 53.4659 7.99898 54.0085 8.10527C54.5511 8.21157 54.9077 8.74186 54.8014 9.28447Z" fill="black"/>
<path d="M62.4913 11.8146C63.0359 11.9213 63.5638 11.5663 63.6705 11.0218C63.7772 10.4772 63.4222 9.94926 62.8776 9.84258C62.3331 9.7359 61.8051 10.0909 61.6984 10.6354C61.5918 11.18 61.9467 11.708 62.4913 11.8146Z" fill="black"/>
<path d="M71.3595 13.5519C71.904 13.6586 72.432 13.3036 72.5387 12.7591C72.6454 12.2145 72.2904 11.6866 71.7458 11.5799C71.2012 11.4732 70.6733 11.8282 70.5666 12.3727C70.4599 12.9173 70.8149 13.4453 71.3595 13.5519Z" fill="black"/>
<path d="M80.2276 15.2893C80.7722 15.3959 81.3002 15.041 81.4068 14.4964C81.5135 13.9518 81.1585 13.4239 80.614 13.3172C80.0694 13.2105 79.5414 13.5655 79.4348 14.1101C79.3281 14.6546 79.6831 15.1826 80.2276 15.2893Z" fill="black"/>
<path d="M89.0958 17.0266C89.6404 17.1332 90.1683 16.7783 90.275 16.2337C90.3817 15.6891 90.0267 15.1612 89.4821 15.0545C88.9376 14.9478 88.4096 15.3028 88.3029 15.8474C88.1962 16.3919 88.5512 16.9199 89.0958 17.0266Z" fill="black"/>
<path d="M97.9649 18.7639C98.5095 18.8705 99.0375 18.5156 99.1441 17.971C99.2508 17.4264 98.8958 16.8985 98.3513 16.7918C97.8067 16.6851 97.2788 17.0401 97.1721 17.5847C97.0654 18.1292 97.4204 18.6572 97.9649 18.7639Z" fill="black"/>
<path d="M106.833 20.5012C107.378 20.6078 107.906 20.2529 108.012 19.7083C108.119 19.1637 107.764 18.6358 107.219 18.5291C106.675 18.4224 106.147 18.7774 106.04 19.322C105.934 19.8665 106.289 20.3945 106.833 20.5012Z" fill="black"/>
<path d="M16.6046 11.01C17.1492 11.1166 17.6771 10.7617 17.7838 10.2171C17.8905 9.67252 17.5355 9.14457 16.9909 9.03789C16.4463 8.93121 15.9184 9.28619 15.8117 9.83076C15.705 10.3753 16.06 10.9033 16.6046 11.01Z" fill="black"/>
<path d="M25.4727 12.7473C26.0173 12.8539 26.5453 12.499 26.6519 11.9544C26.7586 11.4098 26.4037 10.8819 25.8591 10.7752C25.3145 10.6685 24.7866 11.0235 24.6799 11.5681C24.5732 12.1126 24.9282 12.6406 25.4727 12.7473Z" fill="black"/>
<path d="M34.3419 14.4846C34.8865 14.5913 35.4144 14.2363 35.5211 13.6917C35.6278 13.1471 35.2728 12.6192 34.7282 12.5125C34.1837 12.4058 33.6557 12.7608 33.549 13.3054C33.4423 13.8499 33.7973 14.3779 34.3419 14.4846Z" fill="black"/>
<path d="M44.3893 15.429C44.283 15.9716 43.7527 16.3282 43.2101 16.2219C42.6674 16.1156 42.3109 15.5853 42.4172 15.0427C42.5235 14.5001 43.0538 14.1435 43.5964 14.2498C44.139 14.3561 44.4956 14.8864 44.3893 15.429Z" fill="black"/>
<path d="M53.2574 17.1663C53.1511 17.7089 52.6208 18.0655 52.0782 17.9592C51.5356 17.8529 51.1791 17.3226 51.2854 16.78C51.3916 16.2374 51.9219 15.8808 52.4646 15.9871C53.0072 16.0934 53.3637 16.6237 53.2574 17.1663Z" fill="black"/>
<path d="M60.9474 19.6965C61.4919 19.8032 62.0199 19.4482 62.1266 18.9036C62.2332 18.359 61.8783 17.8311 61.3337 17.7244C60.7891 17.6177 60.2612 17.9727 60.1545 18.5173C60.0478 19.0619 60.4028 19.5898 60.9474 19.6965Z" fill="black"/>
<path d="M69.8155 21.4338C70.3601 21.5405 70.888 21.1855 70.9947 20.6409C71.1014 20.0963 70.7464 19.5684 70.2019 19.4617C69.6573 19.355 69.1293 19.71 69.0227 20.2546C68.916 20.7992 69.2709 21.3271 69.8155 21.4338Z" fill="black"/>
<path d="M78.6837 23.1711C79.2283 23.2778 79.7562 22.9228 79.8629 22.3782C79.9696 21.8337 79.6146 21.3057 79.07 21.199C78.5254 21.0923 77.9975 21.4473 77.8908 21.9919C77.7841 22.5365 78.1391 23.0644 78.6837 23.1711Z" fill="black"/>
<path d="M87.5519 24.9084C88.0964 25.0151 88.6244 24.6601 88.731 24.1155C88.8377 23.571 88.4828 23.043 87.9382 22.9363C87.3936 22.8296 86.8657 23.1846 86.759 23.7292C86.6523 24.2738 87.0073 24.8017 87.5519 24.9084Z" fill="black"/>
<path d="M96.421 26.6457C96.9656 26.7524 97.4935 26.3974 97.6002 25.8528C97.7069 25.3083 97.3519 24.7803 96.8073 24.6736C96.2628 24.567 95.7348 24.9219 95.6281 25.4665C95.5214 26.0111 95.8764 26.539 96.421 26.6457Z" fill="black"/>
<path d="M105.289 28.383C105.834 28.4897 106.362 28.1347 106.468 27.5901C106.575 27.0456 106.22 26.5176 105.675 26.4109C105.131 26.3043 104.603 26.6592 104.496 27.2038C104.39 27.7484 104.745 28.2763 105.289 28.383Z" fill="black"/>
<path d="M15.0597 18.8938C15.6042 19.0004 16.1322 18.6455 16.2389 18.1009C16.3455 17.5563 15.9906 17.0284 15.446 16.9217C14.9014 16.815 14.3735 17.17 14.2668 17.7146C14.1601 18.2591 14.5151 18.7871 15.0597 18.8938Z" fill="black"/>
<path d="M23.9278 20.6311C24.4724 20.7377 25.0003 20.3828 25.107 19.8382C25.2137 19.2936 24.8587 18.7657 24.3142 18.659C23.7696 18.5523 23.2416 18.9073 23.135 19.4519C23.0283 19.9964 23.3833 20.5244 23.9278 20.6311Z" fill="black"/>
<path d="M32.797 22.3684C33.3415 22.475 33.8695 22.1201 33.9762 21.5755C34.0829 21.0309 33.7279 20.503 33.1833 20.3963C32.6387 20.2896 32.1108 20.6446 32.0041 21.1892C31.8974 21.7337 32.2524 22.2617 32.797 22.3684Z" fill="black"/>
<path d="M42.8443 23.3128C42.738 23.8554 42.2077 24.212 41.6651 24.1057C41.1225 23.9994 40.766 23.4691 40.8723 22.9265C40.9786 22.3839 41.5089 22.0273 42.0515 22.1336C42.5941 22.2399 42.9506 22.7702 42.8443 23.3128Z" fill="black"/>
<path d="M51.7125 25.0501C51.6062 25.5927 51.0759 25.9493 50.5333 25.843C49.9907 25.7367 49.6341 25.2064 49.7404 24.6638C49.8467 24.1212 50.377 23.7646 50.9196 23.8709C51.4622 23.9772 51.8188 24.5075 51.7125 25.0501Z" fill="black"/>
<path d="M59.4024 27.5803C59.947 27.687 60.475 27.332 60.5816 26.7874C60.6883 26.2428 60.3333 25.7149 59.7888 25.6082C59.2442 25.5015 58.7163 25.8565 58.6096 26.4011C58.5029 26.9456 58.8579 27.4736 59.4024 27.5803Z" fill="black"/>
<path d="M68.2706 29.3176C68.8152 29.4243 69.3431 29.0693 69.4498 28.5247C69.5565 27.9801 69.2015 27.4522 68.6569 27.3455C68.1124 27.2388 67.5844 27.5938 67.4777 28.1384C67.3711 28.683 67.726 29.2109 68.2706 29.3176Z" fill="black"/>
<path d="M77.1388 31.0549C77.6833 31.1616 78.2113 30.8066 78.318 30.262C78.4246 29.7174 78.0697 29.1895 77.5251 29.0828C76.9805 28.9761 76.4526 29.3311 76.3459 29.8757C76.2392 30.4203 76.5942 30.9482 77.1388 31.0549Z" fill="black"/>
<path d="M86.0069 32.7922C86.5515 32.8989 87.0794 32.5439 87.1861 31.9993C87.2928 31.4547 86.9378 30.9268 86.3933 30.8201C85.8487 30.7134 85.3207 31.0684 85.2141 31.613C85.1074 32.1576 85.4624 32.6855 86.0069 32.7922Z" fill="black"/>
<path d="M94.8761 34.5295C95.4206 34.6362 95.9486 34.2812 96.0553 33.7366C96.162 33.1921 95.807 32.6641 95.2624 32.5574C94.7178 32.4507 94.1899 32.8057 94.0832 33.3503C93.9765 33.8949 94.3315 34.4228 94.8761 34.5295Z" fill="black"/>
<path d="M103.744 36.2668C104.289 36.3735 104.817 36.0185 104.923 35.4739C105.03 34.9294 104.675 34.4014 104.131 34.2947C103.586 34.188 103.058 34.543 102.951 35.0876C102.845 35.6322 103.2 36.1601 103.744 36.2668Z" fill="black"/>
<path d="M14.6949 25.9827C14.5886 26.5253 14.0583 26.8819 13.5157 26.7756C12.9731 26.6693 12.6166 26.139 12.7229 25.5964C12.8291 25.0538 13.3594 24.6972 13.902 24.8035C14.4447 24.9098 14.8012 25.4401 14.6949 25.9827Z" fill="black"/>
<path d="M23.5631 27.72C23.4568 28.2626 22.9265 28.6192 22.3839 28.5129C21.8413 28.4066 21.4847 27.8763 21.591 27.3337C21.6973 26.7911 22.2276 26.4345 22.7702 26.5408C23.3128 26.6471 23.6694 27.1774 23.5631 27.72Z" fill="black"/>
<path d="M32.4322 29.4573C32.3259 29.9999 31.7956 30.3565 31.253 30.2502C30.7104 30.1439 30.3539 29.6136 30.4602 29.071C30.5665 28.5284 31.0967 28.1718 31.6394 28.2781C32.182 28.3844 32.5385 28.9147 32.4322 29.4573Z" fill="black"/>
<path d="M41.3004 31.1946C41.1941 31.7372 40.6638 32.0938 40.1212 31.9875C39.5786 31.8812 39.222 31.3509 39.3283 30.8083C39.4346 30.2657 39.9649 29.9091 40.5075 30.0154C41.0501 30.1217 41.4067 30.652 41.3004 31.1946Z" fill="black"/>
<path d="M50.1685 32.9319C50.0623 33.4745 49.532 33.8311 48.9894 33.7248C48.4467 33.6185 48.0902 33.0882 48.1965 32.5456C48.3028 32.003 48.8331 31.6464 49.3757 31.7527C49.9183 31.859 50.2748 32.3893 50.1685 32.9319Z" fill="black"/>
<path d="M59.0377 34.6692C58.9314 35.2119 58.4011 35.5684 57.8585 35.4621C57.3159 35.3558 56.9593 34.8255 57.0656 34.2829C57.1719 33.7403 57.7022 33.3837 58.2448 33.49C58.7874 33.5963 59.144 34.1266 59.0377 34.6692Z" fill="black"/>
<path d="M67.9059 36.4065C67.7996 36.9492 67.2693 37.3057 66.7267 37.1994C66.184 37.0931 65.8275 36.5628 65.9338 36.0202C66.0401 35.4776 66.5704 35.121 67.113 35.2273C67.6556 35.3336 68.0122 35.8639 67.9059 36.4065Z" fill="black"/>
<path d="M76.774 38.1438C76.6677 38.6865 76.1374 39.043 75.5948 38.9367C75.0522 38.8304 74.6957 38.3001 74.802 37.7575C74.9082 37.2149 75.4385 36.8584 75.9811 36.9646C76.5238 37.0709 76.8803 37.6012 76.774 38.1438Z" fill="black"/>
<path d="M85.6422 39.8812C85.5359 40.4238 85.0056 40.7803 84.463 40.674C83.9204 40.5677 83.5638 40.0374 83.6701 39.4948C83.7764 38.9522 84.3067 38.5957 84.8493 38.702C85.3919 38.8083 85.7485 39.3385 85.6422 39.8812Z" fill="black"/>
<path d="M94.5113 41.6185C94.405 42.1611 93.8747 42.5176 93.3321 42.4113C92.7895 42.305 92.433 41.7747 92.5393 41.2321C92.6456 40.6895 93.1758 40.333 93.7185 40.4393C94.2611 40.5456 94.6176 41.0758 94.5113 41.6185Z" fill="black"/>
<path d="M103.379 43.3558C103.273 43.8984 102.743 44.2549 102.2 44.1486C101.658 44.0423 101.301 43.512 101.407 42.9694C101.514 42.4268 102.044 42.0703 102.587 42.1766C103.129 42.2829 103.486 42.8132 103.379 43.3558Z" fill="black"/>
<path d="M13.151 33.8655C13.0447 34.4081 12.5144 34.7647 11.9718 34.6584C11.4292 34.5521 11.0726 34.0218 11.1789 33.4792C11.2852 32.9366 11.8155 32.58 12.3581 32.6863C12.9007 32.7926 13.2573 33.3229 13.151 33.8655Z" fill="black"/>
<path d="M22.0191 35.6028C21.9128 36.1454 21.3825 36.502 20.8399 36.3957C20.2973 36.2894 19.9408 35.7591 20.0471 35.2165C20.1534 34.6739 20.6837 34.3173 21.2263 34.4236C21.7689 34.5299 22.1254 35.0602 22.0191 35.6028Z" fill="black"/>
<path d="M30.8883 37.3401C30.782 37.8828 30.2517 38.2393 29.7091 38.133C29.1665 38.0267 28.8099 37.4964 28.9162 36.9538C29.0225 36.4112 29.5528 36.0546 30.0954 36.1609C30.638 36.2672 30.9946 36.7975 30.8883 37.3401Z" fill="black"/>
<path d="M39.7564 39.0774C39.6501 39.6201 39.1199 39.9766 38.5772 39.8703C38.0346 39.764 37.6781 39.2337 37.7844 38.6911C37.8907 38.1485 38.421 37.7919 38.9636 37.8982C39.5062 38.0045 39.8627 38.5348 39.7564 39.0774Z" fill="black"/>
<path d="M48.6246 40.8147C48.5183 41.3574 47.988 41.7139 47.4454 41.6076C46.9028 41.5013 46.5462 40.971 46.6525 40.4284C46.7588 39.8858 47.2891 39.5293 47.8317 39.6355C48.3743 39.7418 48.7309 40.2721 48.6246 40.8147Z" fill="black"/>
<path d="M57.4937 42.5521C57.3875 43.0947 56.8572 43.4512 56.3145 43.3449C55.7719 43.2386 55.4154 42.7083 55.5217 42.1657C55.628 41.6231 56.1583 41.2666 56.7009 41.3729C57.2435 41.4792 57.6 42.0094 57.4937 42.5521Z" fill="black"/>
<path d="M66.3619 44.2894C66.2556 44.832 65.7253 45.1885 65.1827 45.0822C64.6401 44.9759 64.2835 44.4456 64.3898 43.903C64.4961 43.3604 65.0264 43.0039 65.569 43.1102C66.1116 43.2165 66.4682 43.7467 66.3619 44.2894Z" fill="black"/>
<path d="M75.2301 46.0267C75.1238 46.5693 74.5935 46.9258 74.0509 46.8195C73.5083 46.7132 73.1517 46.1829 73.258 45.6403C73.3643 45.0977 73.8946 44.7412 74.4372 44.8475C74.9798 44.9538 75.3364 45.4841 75.2301 46.0267Z" fill="black"/>
<path d="M84.0982 47.764C83.9919 48.3066 83.4617 48.6631 82.919 48.5568C82.3764 48.4505 82.0199 47.9202 82.1262 47.3776C82.2325 46.835 82.7628 46.4785 83.3054 46.5848C83.848 46.6911 84.2045 47.2214 84.0982 47.764Z" fill="black"/>
<path d="M92.9674 49.5013C92.8611 50.0439 92.3308 50.4004 91.7882 50.2941C91.2456 50.1878 90.889 49.6576 90.9953 49.1149C91.1016 48.5723 91.6319 48.2158 92.1745 48.3221C92.7171 48.4284 93.0737 48.9587 92.9674 49.5013Z" fill="black"/>
<path d="M101.836 51.2386C101.729 51.7812 101.199 52.1377 100.656 52.0314C100.114 51.9251 99.7572 51.3949 99.8635 50.8522C99.9698 50.3096 100.5 49.9531 101.043 50.0594C101.585 50.1657 101.942 50.696 101.836 51.2386Z" fill="black"/>
<path d="M11.607 41.7474C11.5007 42.29 10.9704 42.6465 10.4278 42.5402C9.88522 42.4339 9.52866 41.9036 9.63496 41.361C9.74126 40.8184 10.2715 40.4619 10.8142 40.5682C11.3568 40.6745 11.7133 41.2048 11.607 41.7474Z" fill="black"/>
<path d="M20.4752 43.4847C20.3689 44.0273 19.8386 44.3838 19.296 44.2775C18.7534 44.1712 18.3968 43.641 18.5031 43.0983C18.6094 42.5557 19.1397 42.1992 19.6823 42.3055C20.2249 42.4118 20.5815 42.9421 20.4752 43.4847Z" fill="black"/>
<path d="M29.3443 45.222C29.238 45.7646 28.7077 46.1211 28.1651 46.0148C27.6225 45.9085 27.266 45.3783 27.3723 44.8356C27.4786 44.293 28.0089 43.9365 28.5515 44.0428C29.0941 44.1491 29.4506 44.6794 29.3443 45.222Z" fill="black"/>
<path d="M38.2125 46.9593C38.1062 47.5019 37.5759 47.8584 37.0333 47.7521C36.4907 47.6459 36.1341 47.1156 36.2404 46.5729C36.3467 46.0303 36.877 45.6738 37.4196 45.7801C37.9622 45.8864 38.3188 46.4167 38.2125 46.9593Z" fill="black"/>
<path d="M47.0807 48.6966C46.9744 49.2392 46.4441 49.5958 45.9015 49.4895C45.3589 49.3832 45.0023 48.8529 45.1086 48.3103C45.2149 47.7676 45.7452 47.4111 46.2878 47.5174C46.8304 47.6237 47.187 48.154 47.0807 48.6966Z" fill="black"/>
<path d="M55.9498 50.4339C55.8435 50.9765 55.3132 51.3331 54.7706 51.2268C54.228 51.1205 53.8714 50.5902 53.9777 50.0476C54.084 49.5049 54.6143 49.1484 55.1569 49.2547C55.6995 49.361 56.0561 49.8913 55.9498 50.4339Z" fill="black"/>
<path d="M64.818 52.1712C64.7117 52.7138 64.1814 53.0704 63.6388 52.9641C63.0962 52.8578 62.7396 52.3275 62.8459 51.7849C62.9522 51.2423 63.4825 50.8857 64.0251 50.992C64.5677 51.0983 64.9243 51.6286 64.818 52.1712Z" fill="black"/>
<path d="M73.6861 53.9085C73.5798 54.4511 73.0495 54.8077 72.5069 54.7014C71.9643 54.5951 71.6078 54.0648 71.7141 53.5222C71.8204 52.9796 72.3506 52.623 72.8933 52.7293C73.4359 52.8356 73.7924 53.3659 73.6861 53.9085Z" fill="black"/>
<path d="M82.5543 55.6458C82.448 56.1884 81.9177 56.545 81.3751 56.4387C80.8325 56.3324 80.4759 55.8021 80.5822 55.2595C80.6885 54.7169 81.2188 54.3603 81.7614 54.4666C82.304 54.5729 82.6606 55.1032 82.5543 55.6458Z" fill="black"/>
<path d="M91.4234 57.3831C91.3171 57.9257 90.7868 58.2823 90.2442 58.176C89.7016 58.0697 89.3451 57.5394 89.4514 56.9968C89.5577 56.4542 90.088 56.0976 90.6306 56.2039C91.1732 56.3102 91.5297 56.8405 91.4234 57.3831Z" fill="black"/>
<path d="M100.292 59.1204C100.185 59.663 99.655 60.0196 99.1124 59.9133C98.5698 59.807 98.2132 59.2767 98.3195 58.7341C98.4258 58.1915 98.9561 57.8349 99.4987 57.9412C100.041 58.0475 100.398 58.5778 100.292 59.1204Z" fill="black"/>
<path d="M8.88388 50.4221C9.42845 50.5288 9.9564 50.1738 10.0631 49.6292C10.1698 49.0846 9.81478 48.5567 9.27021 48.45C8.72564 48.3433 8.1977 48.6983 8.09101 49.2429C7.98433 49.7874 8.33931 50.3154 8.88388 50.4221Z" fill="black"/>
<path d="M17.752 52.1594C18.2966 52.2661 18.8246 51.9111 18.9312 51.3665C19.0379 50.8219 18.6829 50.294 18.1384 50.1873C17.5938 50.0806 17.0659 50.4356 16.9592 50.9802C16.8525 51.5247 17.2075 52.0527 17.752 52.1594Z" fill="black"/>
<path d="M26.6212 53.8967C27.1658 54.0034 27.6937 53.6484 27.8004 53.1038C27.9071 52.5592 27.5521 52.0313 27.0075 51.9246C26.4629 51.8179 25.935 52.1729 25.8283 52.7175C25.7216 53.2621 26.0766 53.79 26.6212 53.8967Z" fill="black"/>
<path d="M36.6685 54.8411C36.5623 55.3837 36.032 55.7403 35.4893 55.634C34.9467 55.5277 34.5902 54.9974 34.6965 54.4548C34.8028 53.9122 35.3331 53.5556 35.8757 53.6619C36.4171 53.774 36.7748 54.2985 36.6685 54.8411Z" fill="black"/>
<path d="M45.5367 56.5784C45.4304 57.121 44.9001 57.4776 44.3575 57.3713C43.8149 57.265 43.4583 56.7347 43.5646 56.1921C43.6709 55.6495 44.2012 55.2929 44.7438 55.3992C45.2853 55.5114 45.643 56.0358 45.5367 56.5784Z" fill="black"/>
<path d="M53.2267 59.1086C53.7712 59.2153 54.2992 58.8603 54.4059 58.3157C54.5125 57.7712 54.1576 57.2432 53.613 57.1365C53.0684 57.0298 52.5405 57.3848 52.4338 57.9294C52.3271 58.474 52.6821 59.0019 53.2267 59.1086Z" fill="black"/>
<path d="M62.0948 60.8459C62.6394 60.9526 63.1673 60.5976 63.274 60.053C63.3807 59.5085 63.0257 58.9805 62.4811 58.8738C61.9366 58.7671 61.4086 59.1221 61.302 59.6667C61.1953 60.2113 61.5502 60.7392 62.0948 60.8459Z" fill="black"/>
<path d="M70.963 62.5832C71.5076 62.6899 72.0355 62.3349 72.1422 61.7903C72.2489 61.2458 71.8939 60.7178 71.3493 60.6111C70.8047 60.5045 70.2768 60.8594 70.1701 61.404C70.0634 61.9486 70.4184 62.4765 70.963 62.5832Z" fill="black"/>
<path d="M79.8312 64.3205C80.3757 64.4272 80.9037 64.0722 81.0103 63.5276C81.117 62.9831 80.7621 62.4551 80.2175 62.3484C79.6729 62.2418 79.145 62.5967 79.0383 63.1413C78.9316 63.6859 79.2866 64.2138 79.8312 64.3205Z" fill="black"/>
<path d="M88.7003 66.0578C89.2449 66.1645 89.7728 65.8095 89.8795 65.2649C89.9862 64.7204 89.6312 64.1924 89.0866 64.0857C88.542 63.9791 88.0141 64.334 87.9074 64.8786C87.8007 65.4232 88.1557 65.9511 88.7003 66.0578Z" fill="black"/>
<path d="M97.5685 67.7951C98.113 67.9018 98.641 67.5468 98.7477 67.0022C98.8543 66.4577 98.4994 65.9297 97.9548 65.823C97.4102 65.7164 96.8823 66.0713 96.7756 66.6159C96.6689 67.1605 97.0239 67.6884 97.5685 67.7951Z" fill="black"/>
<path d="M8.51718 57.5189C8.41089 58.0615 7.88059 58.418 7.33798 58.3117C6.79537 58.2054 6.43882 57.6751 6.54512 57.1325C6.65141 56.5899 7.1817 56.2334 7.72431 56.3396C8.26693 56.4459 8.62462 56.9704 8.51718 57.5189Z" fill="black"/>
<path d="M17.3853 59.2562C17.279 59.7988 16.7488 60.1553 16.2061 60.049C15.6635 59.9427 15.307 59.4124 15.4133 58.8698C15.5196 58.3272 16.0499 57.9707 16.5925 58.077C17.1351 58.1833 17.4928 58.7077 17.3853 59.2562Z" fill="black"/>
<path d="M26.2545 60.9935C26.1482 61.5361 25.6179 61.8926 25.0753 61.7863C24.5327 61.68 24.1761 61.1497 24.2824 60.6071C24.3887 60.0645 24.919 59.708 25.4616 59.8143C26.0042 59.9206 26.3619 60.445 26.2545 60.9935Z" fill="black"/>
<path d="M35.1227 62.7308C35.0164 63.2734 34.4861 63.6299 33.9435 63.5236C33.4008 63.4173 33.0443 62.887 33.1506 62.3444C33.2569 61.8018 33.7872 61.4453 34.3298 61.5516C34.8724 61.6579 35.2301 62.1823 35.1227 62.7308Z" fill="black"/>
<path d="M43.9908 64.4681C43.8845 65.0107 43.3542 65.3672 42.8116 65.2609C42.269 65.1546 41.9125 64.6243 42.0187 64.0817C42.125 63.5391 42.6553 63.1826 43.1979 63.2889C43.7406 63.3952 44.0983 63.9196 43.9908 64.4681Z" fill="black"/>
<path d="M52.86 66.2054C52.7537 66.748 52.2234 67.1045 51.6808 66.9982C51.1381 66.8919 50.7816 66.3617 50.8879 65.819C50.9942 65.2764 51.5245 64.9199 52.0671 65.0262C52.6097 65.1325 52.9674 65.6569 52.86 66.2054Z" fill="black"/>
<path d="M61.7281 67.9427C61.6218 68.4853 61.0915 68.8418 60.5489 68.7355C60.0063 68.6293 59.6498 68.099 59.7561 67.5563C59.8624 67.0137 60.3926 66.6572 60.9352 66.7635C61.4779 66.8698 61.8356 67.3942 61.7281 67.9427Z" fill="black"/>
<path d="M70.5963 69.68C70.49 70.2226 69.9597 70.5792 69.4171 70.4729C68.8745 70.3666 68.5179 69.8363 68.6242 69.2937C68.7305 68.751 69.2608 68.3945 69.8034 68.5008C70.346 68.6071 70.7037 69.1315 70.5963 69.68Z" fill="black"/>
<path d="M79.4644 71.4173C79.3581 71.9599 78.8279 72.3165 78.2853 72.2102C77.7426 72.1039 77.3861 71.5736 77.4924 71.031C77.5987 70.4883 78.129 70.1318 78.6716 70.2381C79.2142 70.3444 79.5719 70.8688 79.4644 71.4173Z" fill="black"/>
<path d="M88.3336 73.1546C88.2273 73.6972 87.697 74.0538 87.1544 73.9475C86.6118 73.8412 86.2552 73.3109 86.3615 72.7683C86.4678 72.2257 86.9981 71.8691 87.5407 71.9754C88.0833 72.0817 88.441 72.6061 88.3336 73.1546Z" fill="black"/>
<path d="M97.2018 74.8919C97.0955 75.4345 96.5652 75.7911 96.0226 75.6848C95.4799 75.5785 95.1234 75.0482 95.2297 74.5056C95.336 73.963 95.8663 73.6064 96.4089 73.7127C96.9515 73.819 97.3092 74.3435 97.2018 74.8919Z" fill="black"/>
<path d="M6.97324 65.4007C6.86694 65.9433 6.33665 66.2999 5.79404 66.1936C5.25143 66.0873 4.89487 65.557 5.00117 65.0144C5.10747 64.4717 5.63776 64.1152 6.18037 64.2215C6.72298 64.3278 7.08068 64.8522 6.97324 65.4007Z" fill="black"/>
<path d="M15.8414 67.138C15.7351 67.6806 15.2048 68.0372 14.6622 67.9309C14.1196 67.8246 13.763 67.2943 13.8693 66.7517C13.9756 66.2091 14.5059 65.8525 15.0485 65.9588C15.5911 66.0651 15.9488 66.5895 15.8414 67.138Z" fill="black"/>
<path d="M24.7105 68.8753C24.6042 69.4179 24.074 69.7745 23.5313 69.6682C22.9887 69.5619 22.6322 69.0316 22.7385 68.489C22.8448 67.9464 23.3751 67.5898 23.9177 67.6961C24.4603 67.8024 24.818 68.3269 24.7105 68.8753Z" fill="black"/>
<path d="M33.5787 70.6126C33.4724 71.1552 32.9421 71.5118 32.3995 71.4055C31.8569 71.2992 31.5003 70.7689 31.6066 70.2263C31.7129 69.6837 32.2432 69.3271 32.7858 69.4334C33.3284 69.5397 33.6861 70.0642 33.5787 70.6126Z" fill="black"/>
<path d="M42.4469 72.3499C42.3406 72.8925 41.8103 73.2491 41.2677 73.1428C40.7251 73.0365 40.3685 72.5062 40.4748 71.9636C40.5811 71.421 41.1114 71.0644 41.654 71.1707C42.1966 71.277 42.5543 71.8015 42.4469 72.3499Z" fill="black"/>
<path d="M51.316 74.0872C51.2097 74.6298 50.6794 74.9864 50.1368 74.8801C49.5942 74.7738 49.2376 74.2435 49.3439 73.7009C49.4502 73.1583 49.9805 72.8017 50.5231 72.908C51.0658 73.0143 51.4235 73.5388 51.316 74.0872Z" fill="black"/>
<path d="M60.1842 75.8245C60.0779 76.3671 59.5476 76.7237 59.005 76.6174C58.4624 76.5111 58.1058 75.9808 58.2121 75.4382C58.3184 74.8956 58.8487 74.539 59.3913 74.6453C59.9339 74.7516 60.2916 75.2761 60.1842 75.8245Z" fill="black"/>
<path d="M69.0523 77.5618C68.946 78.1044 68.4157 78.461 67.8731 78.3547C67.3305 78.2484 66.974 77.7181 67.0803 77.1755C67.1866 76.6329 67.7169 76.2763 68.2595 76.3826C68.8021 76.4889 69.1598 77.0134 69.0523 77.5618Z" fill="black"/>
<path d="M77.9205 79.2991C77.8142 79.8417 77.2839 80.1983 76.7413 80.092C76.1987 79.9857 75.8421 79.4554 75.9484 78.9128C76.0547 78.3702 76.585 78.0136 77.1276 78.1199C77.6702 78.2262 78.0279 78.7507 77.9205 79.2991Z" fill="black"/>
<path d="M86.7896 81.0364C86.6834 81.579 86.1531 81.9356 85.6104 81.8293C85.0678 81.723 84.7113 81.1927 84.8176 80.6501C84.9239 80.1075 85.4542 79.7509 85.9968 79.8572C86.5394 79.9635 86.8971 80.488 86.7896 81.0364Z" fill="black"/>
<path d="M95.6578 82.7737C95.5515 83.3163 95.0212 83.6729 94.4786 83.5666C93.936 83.4603 93.5794 82.93 93.6857 82.3874C93.792 81.8448 94.3223 81.4882 94.8649 81.5945C95.4076 81.7008 95.7653 82.2253 95.6578 82.7737Z" fill="black"/>
<path d="M5.42929 73.2835C5.323 73.8261 4.7927 74.1827 4.25009 74.0764C3.70748 73.9701 3.35093 73.4398 3.45723 72.8972C3.56352 72.3546 4.09381 71.998 4.63642 72.1043C5.17903 72.2106 5.53559 72.7409 5.42929 73.2835Z" fill="black"/>
<path d="M14.2975 75.0208C14.1912 75.5634 13.6609 75.92 13.1183 75.8137C12.5756 75.7074 12.2191 75.1771 12.3254 74.6345C12.4317 74.0919 12.962 73.7353 13.5046 73.8416C14.0472 73.9479 14.4038 74.4782 14.2975 75.0208Z" fill="black"/>
<path d="M23.1666 76.7581C23.0603 77.3007 22.53 77.6573 21.9874 77.551C21.4448 77.4447 21.0882 76.9144 21.1945 76.3718C21.3008 75.8292 21.8311 75.4726 22.3737 75.5789C22.9163 75.6852 23.2729 76.2155 23.1666 76.7581Z" fill="black"/>
<path d="M32.0348 78.4954C31.9285 79.038 31.3982 79.3946 30.8556 79.2883C30.3129 79.182 29.9564 78.6517 30.0627 78.1091C30.169 77.5665 30.6993 77.2099 31.2419 77.3162C31.7845 77.4225 32.1411 77.9528 32.0348 78.4954Z" fill="black"/>
<path d="M40.9029 80.2327C40.7966 80.7753 40.2663 81.1319 39.7237 81.0256C39.1811 80.9193 38.8246 80.389 38.9309 79.8464C39.0372 79.3038 39.5674 78.9472 40.1101 79.0535C40.6527 79.1598 41.0092 79.6901 40.9029 80.2327Z" fill="black"/>
<path d="M49.7721 81.97C49.6658 82.5126 49.1355 82.8692 48.5929 82.7629C48.0503 82.6566 47.6937 82.1263 47.8 81.5837C47.9063 81.0411 48.4366 80.6845 48.9792 80.7908C49.5218 80.8971 49.8784 81.4274 49.7721 81.97Z" fill="black"/>
<path d="M58.6402 83.7073C58.5339 84.2499 58.0036 84.6065 57.461 84.5002C56.9184 84.3939 56.5619 83.8636 56.6682 83.321C56.7745 82.7784 57.3047 82.4218 57.8474 82.5281C58.39 82.6344 58.7465 83.1647 58.6402 83.7073Z" fill="black"/>
<path d="M67.5084 85.4446C67.4021 85.9872 66.8718 86.3438 66.3292 86.2375C65.7866 86.1312 65.43 85.6009 65.5363 85.0583C65.6426 84.5157 66.1729 84.1591 66.7155 84.2654C67.2581 84.3717 67.6147 84.902 67.5084 85.4446Z" fill="black"/>
<path d="M76.3766 87.1819C76.2703 87.7245 75.74 88.0811 75.1974 87.9748C74.6548 87.8685 74.2982 87.3382 74.4045 86.7956C74.5108 86.253 75.0411 85.8964 75.5837 86.0027C76.1263 86.109 76.4829 86.6393 76.3766 87.1819Z" fill="black"/>
<path d="M85.2457 88.9192C85.1394 89.4619 84.6091 89.8184 84.0665 89.7121C83.5239 89.6058 83.1673 89.0755 83.2736 88.5329C83.3799 87.9903 83.9102 87.6337 84.4528 87.74C84.9954 87.8463 85.352 88.3766 85.2457 88.9192Z" fill="black"/>
<path d="M94.1139 90.6565C94.0076 91.1992 93.4773 91.5557 92.9347 91.4494C92.3921 91.3431 92.0355 90.8128 92.1418 90.2702C92.2481 89.7276 92.7784 89.371 93.321 89.4773C93.8636 89.5836 94.2202 90.1139 94.1139 90.6565Z" fill="black"/>
<path d="M2.70517 81.9592C3.24974 82.0659 3.77769 81.7109 3.88437 81.1663C3.99105 80.6217 3.63607 80.0938 3.0915 79.9871C2.54693 79.8804 2.01899 80.2354 1.9123 80.78C1.80562 81.3246 2.1606 81.8525 2.70517 81.9592Z" fill="black"/>
<path d="M11.5733 83.6965C12.1179 83.8032 12.6459 83.4482 12.7525 82.9036C12.8592 82.359 12.5042 81.8311 11.9597 81.7244C11.4151 81.6177 10.8871 81.9727 10.7805 82.5173C10.6738 83.0619 11.0288 83.5898 11.5733 83.6965Z" fill="black"/>
<path d="M20.4425 85.4338C20.987 85.5405 21.515 85.1855 21.6217 84.6409C21.7284 84.0963 21.3734 83.5684 20.8288 83.4617C20.2842 83.355 19.7563 83.71 19.6496 84.2546C19.5429 84.7992 19.8979 85.3271 20.4425 85.4338Z" fill="black"/>
<path d="M30.4898 86.3782C30.3835 86.9208 29.8532 87.2774 29.3106 87.1711C28.768 87.0648 28.4115 86.5345 28.5178 85.9919C28.6241 85.4493 29.1544 85.0927 29.697 85.199C30.2396 85.3053 30.5961 85.8356 30.4898 86.3782Z" fill="black"/>
<path d="M39.358 88.1155C39.2517 88.6581 38.7214 89.0147 38.1788 88.9084C37.6362 88.8021 37.2796 88.2718 37.3859 87.7292C37.4922 87.1866 38.0225 86.83 38.5651 86.9363C39.1077 87.0426 39.4643 87.5729 39.358 88.1155Z" fill="black"/>
<path d="M47.0479 90.6457C47.5925 90.7524 48.1205 90.3974 48.2271 89.8528C48.3338 89.3083 47.9788 88.7803 47.4343 88.6736C46.8897 88.567 46.3618 88.9219 46.2551 89.4665C46.1484 90.0111 46.5034 90.539 47.0479 90.6457Z" fill="black"/>
<path d="M55.9161 92.383C56.4607 92.4897 56.9886 92.1347 57.0953 91.5901C57.202 91.0456 56.847 90.5176 56.3024 90.4109C55.7579 90.3043 55.2299 90.6592 55.1232 91.2038C55.0166 91.7484 55.3715 92.2763 55.9161 92.383Z" fill="black"/>
<path d="M64.7843 94.1203C65.3288 94.227 65.8568 93.872 65.9635 93.3274C66.0702 92.7829 65.7152 92.2549 65.1706 92.1482C64.626 92.0416 64.0981 92.3965 63.9914 92.9411C63.8847 93.4857 64.2397 94.0136 64.7843 94.1203Z" fill="black"/>
<path d="M73.6524 95.8576C74.197 95.9643 74.7249 95.6093 74.8316 95.0647C74.9383 94.5202 74.5833 93.9922 74.0388 93.8855C73.4942 93.7789 72.9663 94.1338 72.8596 94.6784C72.7529 95.223 73.1079 95.7509 73.6524 95.8576Z" fill="black"/>
<path d="M82.5216 97.5949C83.0662 97.7016 83.5941 97.3466 83.7008 96.8021C83.8075 96.2575 83.4525 95.7295 82.9079 95.6229C82.3633 95.5162 81.8354 95.8712 81.7287 96.4157C81.622 96.9603 81.977 97.4882 82.5216 97.5949Z" fill="black"/>
<path d="M91.3897 99.3322C91.9343 99.4389 92.4623 99.0839 92.5689 98.5394C92.6756 97.9948 92.3206 97.4668 91.7761 97.3602C91.2315 97.2535 90.7036 97.6085 90.5969 98.153C90.4902 98.6976 90.8452 99.2255 91.3897 99.3322Z" fill="black"/>
<path d="M2.34043 89.0481C2.23413 89.5908 1.70384 89.9473 1.16123 89.841C0.618615 89.7347 0.26206 89.2044 0.368358 88.6618C0.474656 88.1192 1.00495 87.7626 1.54756 87.8689C2.09017 87.9752 2.44672 88.5055 2.34043 89.0481Z" fill="black"/>
<path d="M11.2086 90.7855C11.1023 91.3281 10.572 91.6846 10.0294 91.5783C9.48678 91.472 9.13022 90.9417 9.23652 90.3991C9.34282 89.8565 9.87311 89.5 10.4157 89.6063C10.9583 89.7125 11.3149 90.2428 11.2086 90.7855Z" fill="black"/>
<path d="M20.0777 92.5228C19.9714 93.0654 19.4411 93.4219 18.8985 93.3156C18.3559 93.2093 17.9994 92.679 18.1057 92.1364C18.212 91.5938 18.7423 91.2373 19.2849 91.3436C19.8275 91.4499 20.184 91.9801 20.0777 92.5228Z" fill="black"/>
<path d="M28.9459 94.2601C28.8396 94.8027 28.3093 95.1592 27.7667 95.0529C27.2241 94.9466 26.8675 94.4163 26.9738 93.8737C27.0801 93.3311 27.6104 92.9746 28.153 93.0809C28.6956 93.1872 29.0522 93.7175 28.9459 94.2601Z" fill="black"/>
<path d="M37.8141 95.9974C37.7078 96.54 37.1775 96.8965 36.6349 96.7902C36.0923 96.6839 35.7357 96.1536 35.842 95.611C35.9483 95.0684 36.4786 94.7119 37.0212 94.8182C37.5638 94.9245 37.9204 95.4548 37.8141 95.9974Z" fill="black"/>
<path d="M46.6832 97.7347C46.5769 98.2773 46.0466 98.6338 45.504 98.5275C44.9614 98.4212 44.6048 97.891 44.7111 97.3483C44.8174 96.8057 45.3477 96.4492 45.8903 96.5555C46.4329 96.6618 46.7895 97.1921 46.6832 97.7347Z" fill="black"/>
<path d="M55.5514 99.472C55.4451 100.015 54.9148 100.371 54.3722 100.265C53.8296 100.159 53.473 99.6283 53.5793 99.0856C53.6856 98.543 54.2159 98.1865 54.7585 98.2928C55.3011 98.3991 55.6577 98.9294 55.5514 99.472Z" fill="black"/>
<path d="M64.4195 101.209C64.3132 101.752 63.7829 102.108 63.2403 102.002C62.6977 101.896 62.3412 101.366 62.4475 100.823C62.5538 100.28 63.084 99.9238 63.6267 100.03C64.1693 100.136 64.5258 100.667 64.4195 101.209Z" fill="black"/>
<path d="M73.2877 102.947C73.1814 103.489 72.6511 103.846 72.1085 103.739C71.5659 103.633 71.2093 103.103 71.3156 102.56C71.4219 102.018 71.9522 101.661 72.4948 101.767C73.0374 101.874 73.394 102.404 73.2877 102.947Z" fill="black"/>
<path d="M82.1568 104.684C82.0505 105.227 81.5202 105.583 80.9776 105.477C80.435 105.37 80.0785 104.84 80.1848 104.298C80.2911 103.755 80.8214 103.398 81.364 103.505C81.9066 103.611 82.2631 104.141 82.1568 104.684Z" fill="black"/>
<path d="M91.025 106.421C90.9187 106.964 90.3884 107.32 89.8458 107.214C89.3032 107.108 88.9466 106.577 89.0529 106.035C89.1592 105.492 89.6895 105.136 90.2321 105.242C90.7747 105.348 91.1313 105.879 91.025 106.421Z" fill="black"/>
</svg>
