<svg id="Group_10" data-name="Group 10" xmlns="http://www.w3.org/2000/svg" width="23.26" height="30.004" viewBox="0 0 23.26 30.004">
  <path id="Path_3" data-name="Path 3" d="M14.839,3.674,6.463,8.164c-1.23.659-1.845.989-1.845,1.511s.615.852,1.845,1.511l8.376,4.49a3.255,3.255,0,0,0,1.409.556,3.255,3.255,0,0,0,1.409-.556l8.376-4.49c1.23-.659,1.845-.989,1.845-1.511s-.615-.852-1.845-1.511l-8.376-4.49a3.254,3.254,0,0,0-1.409-.556A3.254,3.254,0,0,0,14.839,3.674Z" transform="translate(-4.618 -3.118)" fill="#65e4a3"/>
  <path id="Path_4" data-name="Path 4" d="M8.405,10.489c.951.548,2.072,1.148,3.361,1.839l1.663.892a6.509,6.509,0,0,0,2.818,1.112,6.509,6.509,0,0,0,2.818-1.112l1.663-.892c1.289-.691,2.41-1.292,3.361-1.839l1.943,1.041c1.23.659,1.845.989,1.845,1.511s-.615.851-1.845,1.511l-8.376,4.49a3.254,3.254,0,0,1-1.409.556,3.254,3.254,0,0,1-1.409-.556h0l-8.376-4.49c-1.23-.659-1.845-.989-1.845-1.511s.615-.852,1.845-1.511Z" transform="translate(-4.618 1.961)" fill="#65e4a3" fill-rule="evenodd"/>
  <path id="Path_5" data-name="Path 5" d="M8.4,15.489c.952.548,2.072,1.148,3.362,1.84l1.663.891a6.509,6.509,0,0,0,2.818,1.112,6.508,6.508,0,0,0,2.818-1.112l1.663-.891c1.29-.691,2.41-1.292,3.362-1.84l1.942,1.041c1.23.659,1.845.989,1.845,1.511s-.615.852-1.845,1.511l-8.376,4.49a3.253,3.253,0,0,1-1.409.556,3.253,3.253,0,0,1-1.409-.556h0l-8.376-4.49c-1.23-.659-1.845-.989-1.845-1.511s.615-.851,1.845-1.511Z" transform="translate(-4.618 5.406)" fill="#65e4a3" fill-rule="evenodd"/>
</svg>
