<svg id="Group_14" data-name="Group 14" xmlns="http://www.w3.org/2000/svg" width="25.63" height="26.104" viewBox="0 0 25.63 26.104">
  <path id="Path_6" data-name="Path 6" d="M22.477,9.557c.025.327.038.49.117.578s.236.109.549.151a5.379,5.379,0,0,1,4.486,5.453,5.321,5.321,0,0,1-5.126,5.5h-.641c-.3,0-.453,0-.547-.1s-.094-.263-.094-.586V18.487c0-2.591,0-3.886-.751-4.691s-1.959-.8-4.375-.8H13.533c-2.416,0-3.625,0-4.375.8s-.751,2.1-.751,4.691v2.061c0,.324,0,.486-.094.586s-.245.1-.547.1H7.126A5.321,5.321,0,0,1,2,15.739a5.379,5.379,0,0,1,4.486-5.453c.314-.042.471-.063.549-.151s.091-.251.117-.578a8.8,8.8,0,0,1,.121-.922,8.536,8.536,0,0,1,1.441-3.41,7.83,7.83,0,0,1,2.7-2.375,7.227,7.227,0,0,1,6.8,0,7.83,7.83,0,0,1,2.7,2.375,8.534,8.534,0,0,1,1.441,3.41A8.819,8.819,0,0,1,22.477,9.557Z" transform="translate(-2 -2)" fill="#65e4a3"/>
  <path id="Path_7" data-name="Path 7" d="M8.751,11.8C8,12.61,8,13.905,8,16.5v2.748c0,2.591,0,3.886.751,4.691s1.959.8,4.375.8,3.625,0,4.375-.8.751-2.1.751-4.691V16.5c0-2.591,0-3.886-.751-4.691s-1.959-.8-4.375-.8S9.5,11,8.751,11.8ZM12.485,16.5a1.377,1.377,0,0,0,0,2.748h1.281a1.377,1.377,0,0,0,0-2.748Z" transform="translate(-0.311 1.365)" fill="#65e4a3" fill-rule="evenodd"/>
</svg>
