<svg xmlns="http://www.w3.org/2000/svg" width="22" height="29.483" viewBox="0 0 22 29.483">
  <path id="Path_9" data-name="Path 9" d="M26,13.358A11.456,11.456,0,0,1,24.008,14.7,19.486,19.486,0,0,1,15,16.742,19.486,19.486,0,0,1,5.992,14.7,11.454,11.454,0,0,1,4,13.358v3.384c0,1.559,1.152,3.06,3.222,4.17A16.916,16.916,0,0,0,15,22.638a16.916,16.916,0,0,0,7.778-1.727C24.848,19.8,26,18.3,26,16.742ZM26,22.2a11.453,11.453,0,0,1-1.992,1.346A19.486,19.486,0,0,1,15,25.587a19.486,19.486,0,0,1-9.008-2.038A11.452,11.452,0,0,1,4,22.2v3.384c0,3.257,4.925,5.9,11,5.9s11-2.64,11-5.9ZM26,7.9C26,4.64,21.075,2,15,2S4,4.64,4,7.9c0,1.559,1.152,3.06,3.222,4.17A16.917,16.917,0,0,0,15,13.793a16.918,16.918,0,0,0,7.778-1.727C24.848,10.957,26,9.456,26,7.9Z" transform="translate(-4 -2)" fill="#65e4a3" fill-rule="evenodd"/>
</svg>
