<svg width="24" height="25" viewBox="0 0 24 25" fill="none" xmlns="http://www.w3.org/2000/svg">
<path fill-rule="evenodd" clip-rule="evenodd" d="M9.67505 19.8385L6.67505 17.6957C5.8539 17.1092 5.44333 16.8159 5.22166 16.3852C5 15.9544 5 15.4499 5 14.4408V10.5577C5 10.2363 5 9.96617 5.00716 9.73324L11 14.0138V20.7305C10.6433 20.5301 10.227 20.2328 9.67505 19.8385ZM13 20.7305C13.3567 20.5301 13.773 20.2328 14.325 19.8385L17.325 17.6957C18.1461 17.1092 18.5567 16.8159 18.7783 16.3852C19 15.9544 19 15.4499 19 14.4408V10.5577C19 10.2363 19 9.96617 18.9928 9.73324L13 14.0138V20.7305ZM18.1276 7.89349L12 12.2703L5.87244 7.89349C6.08372 7.72513 6.34653 7.53742 6.67505 7.30276L9.67505 5.1599C10.7977 4.35799 11.3591 3.95703 12 3.95703C12.6409 3.95703 13.2023 4.35799 14.325 5.1599L17.325 7.30276C17.6535 7.53742 17.9163 7.72513 18.1276 7.89349Z" fill="#4FE9A4"/>
</svg>
