<svg width="85" height="85" viewBox="0 0 85 85" fill="none" xmlns="http://www.w3.org/2000/svg">
<g clip-path="url(#clip0_77_935)">
<path d="M66.7779 47.1574C71.6936 47.1574 75.6925 43.1583 75.6925 38.2428C75.6925 33.3274 71.6933 29.3282 66.7779 29.3282C61.8624 29.3282 57.8633 33.3274 57.8633 38.2428C57.8633 43.1583 61.8621 47.1574 66.7779 47.1574Z" fill="black"/>
<path d="M83.3832 73.0461H1.61678C0.725175 73.0461 0 73.7713 0 74.6629V80.911C0 81.8026 0.725175 82.5278 1.61678 82.5278H83.3832C84.2748 82.5278 85 81.8026 85 80.911V74.6629C85 73.7713 84.2748 73.0461 83.3832 73.0461Z" fill="black"/>
<path d="M49.4088 58.9748V69.4797H83.3833C83.6424 69.4797 83.895 69.505 84.1441 69.5418V58.9341C84.1441 55.5418 81.9641 52.5335 78.7403 51.4776L78.7255 51.4728L74.0104 50.6921C73.6091 50.5687 73.1803 50.7809 73.0358 51.1771L67.6856 65.8565C67.3768 66.7033 66.1794 66.7033 65.8706 65.8565L60.5203 51.1771C60.4038 50.8573 60.1022 50.657 59.7788 50.657C59.7021 50.657 59.6243 50.6683 59.547 50.6921L54.8307 51.4719C51.5805 52.5546 49.4088 55.5677 49.4088 58.9748Z" fill="black"/>
<path d="M11.8837 34.411H34.5605L41.7974 41.6482C42.1957 42.0461 42.7277 42.2575 43.2692 42.2575C43.5369 42.2575 43.8074 42.2057 44.0648 42.099C44.8423 41.7772 45.349 41.0184 45.349 40.177V34.4C49.7137 34.1723 53.1948 30.5497 53.1948 26.1294V10.7537C53.1948 6.18713 49.4795 2.4718 44.913 2.4718H11.8837C7.31714 2.4718 3.60181 6.18713 3.60181 10.7537V26.1288C3.60181 30.6957 7.31714 34.411 11.8837 34.411ZM13.8086 23.3381L21.313 15.8337C22.2418 14.9056 23.7468 14.9056 24.6756 15.8337L27.8981 19.0566L31.524 15.4307C30.622 15.0931 29.9786 14.2256 29.9786 13.2059C29.9786 11.8928 31.0431 10.8283 32.3562 10.8283H37.26C38.5731 10.8283 39.6376 11.8928 39.6376 13.2059V18.1097C39.6376 19.4228 38.5731 20.4873 37.26 20.4873C36.1571 20.4873 35.2322 19.7351 34.9635 18.7166L29.5794 24.1001C28.6507 25.0283 27.1456 25.0283 26.2169 24.1001L22.9943 20.8776L17.1712 26.7007C16.7067 27.1649 16.0986 27.397 15.4899 27.397C14.8812 27.397 14.2729 27.1649 13.8086 26.7007C12.8802 25.7719 12.8802 24.2669 13.8086 23.3381Z" fill="black"/>
<path d="M68.7076 50.4719C68.5034 50.2493 68.2047 50.1372 67.9028 50.1372H65.6497C65.3477 50.1372 65.049 50.2493 64.8449 50.4719C64.5286 50.8163 64.4829 51.3141 64.7073 51.7032L65.9115 53.5188L65.3477 58.2752L66.4581 61.2288C66.5663 61.5257 66.9865 61.5257 67.0947 61.2288L68.205 58.2752L67.6413 53.5188L68.8455 51.7032C69.0699 51.3141 69.0238 50.8166 68.7076 50.4719Z" fill="black"/>
</g>
<defs>
<clipPath id="clip0_77_935">
<rect width="85" height="85" fill="white"/>
</clipPath>
</defs>
</svg>
