<svg width="24" height="25" viewBox="0 0 24 25" fill="none" xmlns="http://www.w3.org/2000/svg">
<path d="M11.1056 3.94721L5.78885 6.60557C5.00831 6.99585 4.61803 7.19098 4.61803 7.5C4.61803 7.80902 5.00831 8.00415 5.78885 8.39443L11.1056 11.0528C11.5445 11.2722 11.7639 11.382 12 11.382C12.2361 11.382 12.4555 11.2722 12.8944 11.0528L18.2111 8.39443C18.9917 8.00415 19.382 7.80902 19.382 7.5C19.382 7.19098 18.9917 6.99585 18.2111 6.60557L12.8944 3.94721C12.4555 3.72776 12.2361 3.61803 12 3.61803C11.7639 3.61803 11.5445 3.72776 11.1056 3.94721Z" fill="#4FE9A4"/>
<path fill-rule="evenodd" clip-rule="evenodd" d="M7.02217 10.9883C7.62603 11.3125 8.33716 11.668 9.15554 12.0772L10.2113 12.6051C11.0891 13.044 11.528 13.2635 12.0001 13.2635C12.4723 13.2635 12.9112 13.044 13.789 12.6051L14.8447 12.0772C15.6631 11.668 16.3742 11.3125 16.9781 10.9883L18.2113 11.6049C18.9918 11.9951 19.3821 12.1903 19.3821 12.4993C19.3821 12.8083 18.9918 13.0035 18.2113 13.3937L12.8946 16.0521C12.4557 16.2715 12.2362 16.3813 12.0001 16.3813C11.7641 16.3813 11.5446 16.2715 11.1057 16.0521L11.1057 16.0521L5.78898 13.3937C5.00844 13.0035 4.61816 12.8083 4.61816 12.4993C4.61816 12.1903 5.00844 11.9951 5.78898 11.6049L7.02217 10.9883Z" fill="#4FE9A4"/>
<path fill-rule="evenodd" clip-rule="evenodd" d="M7.02169 15.9883C7.62567 16.3125 8.33696 16.6682 9.15557 17.0775L10.2113 17.6054C11.0891 18.0443 11.528 18.2637 12.0001 18.2637C12.4723 18.2637 12.9112 18.0443 13.789 17.6054L14.8447 17.0775C15.6633 16.6682 16.3746 16.3126 16.9786 15.9883L18.2113 16.6046C18.9918 16.9949 19.3821 17.19 19.3821 17.4991C19.3821 17.8081 18.9918 18.0032 18.2113 18.3935L12.8946 21.0518C12.4557 21.2713 12.2362 21.381 12.0001 21.381C11.7641 21.381 11.5446 21.2713 11.1057 21.0519L11.1057 21.0518L5.78898 18.3935C5.00844 18.0032 4.61816 17.8081 4.61816 17.4991C4.61816 17.19 5.00844 16.9949 5.78898 16.6046L7.02169 15.9883Z" fill="#4FE9A4"/>
</svg>
