<svg width="81" height="81" viewBox="0 0 81 81" fill="none" xmlns="http://www.w3.org/2000/svg">
<path d="M11.5714 46.2857L43.3928 46.2886C46.4413 46.2886 48.9416 48.6477 49.1626 51.6424L49.1785 52.0743V59.3036C49.1756 71.4536 36.7768 75.2143 27.4821 75.2143C18.3732 75.2143 6.28047 71.6025 5.8004 60.0226L5.78564 59.3036V52.0714C5.78564 49.0229 8.14736 46.5226 11.1398 46.3016L11.5714 46.2857ZM49.8149 46.2886L69.4285 46.2857C72.4771 46.2857 74.9773 48.6475 75.1983 51.6399L75.2142 52.0714V57.8572C75.2113 68.7314 65.2917 72.3214 57.8571 72.3214C54.7964 72.3214 51.3221 71.6995 48.2846 70.2241C50.4608 67.6375 51.8735 64.3453 52.0521 60.2041L52.0714 59.3036V52.0743C52.0714 50.0441 51.3517 48.1955 50.1798 46.7199L49.8149 46.2886L69.4285 46.2857L49.8149 46.2886ZM27.4821 8.67859C36.2677 8.67859 43.3928 15.8037 43.3928 24.5893C43.3928 33.3749 36.2677 40.5 27.4821 40.5C18.6965 40.5 11.5714 33.3749 11.5714 24.5893C11.5714 15.8037 18.6965 8.67859 27.4821 8.67859ZM59.3035 14.4643C66.4923 14.4643 72.3214 20.2934 72.3214 27.4822C72.3214 34.6709 66.4923 40.5 59.3035 40.5C52.1148 40.5 46.2856 34.6709 46.2856 27.4822C46.2856 20.2934 52.1148 14.4643 59.3035 14.4643Z" fill="#212121"/>
</svg>
