<svg xmlns="http://www.w3.org/2000/svg" width="33.923" height="27.969" viewBox="0 0 33.923 27.969">
  <g id="photograph-svgrepo-com" transform="translate(0 -44.931)">
    <g id="Group_20" data-name="Group 20" transform="translate(7.338 51.556)">
      <g id="Group_19" data-name="Group 19">
        <path id="Path_143" data-name="Path 143" d="M120.382,144.925a9.623,9.623,0,1,0,9.623,9.623A9.634,9.634,0,0,0,120.382,144.925Zm0,17.861a8.238,8.238,0,1,1,8.238-8.238A8.248,8.248,0,0,1,120.382,162.786Z" transform="translate(-110.759 -144.925)"/>
      </g>
    </g>
    <g id="Group_22" data-name="Group 22" transform="translate(11.146 55.364)">
      <g id="Group_21" data-name="Group 21" transform="translate(0 0)">
        <path id="Path_144" data-name="Path 144" d="M174.044,202.395a5.815,5.815,0,1,0,5.815,5.815A5.822,5.822,0,0,0,174.044,202.395Zm0,10.246a4.431,4.431,0,1,1,4.431-4.431A4.436,4.436,0,0,1,174.044,212.641Z" transform="translate(-168.229 -202.395)"/>
      </g>
    </g>
    <g id="Group_24" data-name="Group 24" transform="translate(14.281 58.499)">
      <g id="Group_23" data-name="Group 23">
        <path id="Path_145" data-name="Path 145" d="M220.7,249.912a.692.692,0,0,0-.979.979,2.119,2.119,0,1,1-3,3,.692.692,0,0,0-.979.979,3.5,3.5,0,0,0,4.955-4.956Z" transform="translate(-215.543 -249.71)"/>
      </g>
    </g>
    <g id="Group_26" data-name="Group 26" transform="translate(27.698 53.295)">
      <g id="Group_25" data-name="Group 25">
        <path id="Path_146" data-name="Path 146" d="M419.157,171.173a1.108,1.108,0,1,0,1.108,1.108A1.109,1.109,0,0,0,419.157,171.173Z" transform="translate(-418.049 -171.173)"/>
      </g>
    </g>
    <g id="Group_28" data-name="Group 28" transform="translate(0 44.931)">
      <g id="Group_27" data-name="Group 27" transform="translate(0 0)">
        <path id="Path_147" data-name="Path 147" d="M31.154,49.458H25.846l-1.981-4.134a.692.692,0,0,0-.624-.393H10.959a.692.692,0,0,0-.624.393L8.354,49.458h-.67V47.765a.692.692,0,0,0-.692-.692H3.669a.692.692,0,0,0-.692.692v1.693H2.769A2.769,2.769,0,0,0,0,52.221V70.137A2.769,2.769,0,0,0,2.769,72.9H31.154a2.769,2.769,0,0,0,2.769-2.763V52.221A2.769,2.769,0,0,0,31.154,49.458Zm-26.792-1H6.3v1H4.362Zm28.177,21.68a1.383,1.383,0,0,1-1.385,1.378H2.769a1.383,1.383,0,0,1-1.385-1.378V52.221a1.383,1.383,0,0,1,1.385-1.378H8.79a.692.692,0,0,0,.624-.393L11.4,46.316H22.8l1.981,4.134a.692.692,0,0,0,.624.393h5.744a1.383,1.383,0,0,1,1.385,1.378V70.137Z" transform="translate(0 -44.931)"/>
      </g>
    </g>
    <g id="Group_30" data-name="Group 30" transform="translate(18.771 49.458)">
      <g id="Group_29" data-name="Group 29" transform="translate(0 0)">
        <path id="Path_148" data-name="Path 148" d="M284.313,113.263H284a.692.692,0,1,0,0,1.385h.31a.692.692,0,1,0,0-1.385Z" transform="translate(-283.311 -113.263)"/>
      </g>
    </g>
    <g id="Group_32" data-name="Group 32" transform="translate(10.757 49.458)">
      <g id="Group_31" data-name="Group 31" transform="translate(0 0)">
        <path id="Path_149" data-name="Path 149" d="M168.816,113.263h-5.775a.692.692,0,0,0,0,1.385h5.775a.692.692,0,1,0,0-1.385Z" transform="translate(-162.349 -113.263)"/>
      </g>
    </g>
  </g>
</svg>
