<svg xmlns="http://www.w3.org/2000/svg" width="73.457" height="74" viewBox="0 0 73.457 74">
  <g id="price-svgrepo-com" transform="translate(-1.879)">
    <g id="Group_6" data-name="Group 6" transform="translate(1.879 0)">
      <g id="Group_5" data-name="Group 5" transform="translate(0 0)">
        <path id="Path_137" data-name="Path 137" d="M70.384,39.875h-29.9l-1.844-4.547a1.006,1.006,0,0,0-1.31-.554l-2.025.822-3.8-9.365,10.046.424-.092,2.184a1.006,1.006,0,0,0,.963,1.047l19.992.844a.783.783,0,0,0,.487-1.421,37.31,37.31,0,0,0-20.063-6.881l-13.1-.553L28.1,17.839a6.977,6.977,0,0,0,.763.044,6.622,6.622,0,0,0,2.5-.485c3.819-1.549,5.64-6.5,3.677-11.339-1.87-4.611-6.532-7.2-10.537-5.572-3.824,1.551-5.637,6.507-3.677,11.339.268.659,4.213,9.852,4.213,9.852S15.01,21.053,14.3,21.023c-5.071-.212-9.262,3.061-9.44,7.278A7.182,7.182,0,0,0,7.51,34.034a10.123,10.123,0,0,0,6.142,2.314c5.077.213,9.262-3.066,9.44-7.278a6.708,6.708,0,0,0-.689-3.223l4.409.186,4.948,12.2c.225.556.468,1.1.719,1.645H6.831a4.957,4.957,0,0,0-4.952,4.952V69.048A4.957,4.957,0,0,0,6.831,74H70.384a4.957,4.957,0,0,0,4.952-4.952V44.827A4.958,4.958,0,0,0,70.384,39.875ZM13.856,31.531c-2.291-.1-4.244-1.511-4.18-3.027.061-1.447,1.964-2.67,4.155-2.67,2.444,0,4.511,1.48,4.445,3.033C18.212,30.372,16.159,31.629,13.856,31.531ZM25.3,10.013c-.862-2.125-.384-4.489,1.022-5.059,1.308-.531,3.33.631,4.257,2.918.918,2.263.311,4.518-1.022,5.059C28.255,13.459,26.231,12.308,25.3,10.013ZM70.515,69.048a.131.131,0,0,1-.131.131H6.831a.131.131,0,0,1-.131-.131V44.827a.131.131,0,0,1,.131-.131H70.384a.131.131,0,0,1,.131.131V69.048Z" transform="translate(-1.879 0)"/>
      </g>
    </g>
    <g id="Group_8" data-name="Group 8" transform="translate(17.49 50.776)">
      <g id="Group_7" data-name="Group 7" transform="translate(0)">
        <path id="Path_138" data-name="Path 138" d="M114.472,351.316h-3.578a.9.9,0,0,0-1,.813v10.995c0,.553.674.83,1.348.83s1.348-.277,1.348-.83v-3.734H114.3c2.386,0,4.253-1.106,4.253-4.011v-.086C118.552,352.388,116.754,351.316,114.472,351.316Zm1.383,4.27c0,1.175-.588,1.729-1.556,1.729h-1.711v-3.648H114.3c.968,0,1.556.553,1.556,1.729Z" transform="translate(-109.891 -351.316)"/>
      </g>
    </g>
    <g id="Group_10" data-name="Group 10" transform="translate(27.326 50.776)">
      <g id="Group_9" data-name="Group 9">
        <path id="Path_139" data-name="Path 139" d="M186.623,362.345l-2.109-3.82a3.407,3.407,0,0,0,2.092-3.509c0-2.818-1.884-3.7-4.253-3.7h-3.578a.8.8,0,0,0-.83.813v10.995c0,.553.674.83,1.348.83s1.348-.277,1.348-.83v-4.166h1.141l2.368,4.6a.921.921,0,0,0,.864.5,1.756,1.756,0,0,0,1.694-1.4A.57.57,0,0,0,186.623,362.345Zm-4.27-5.463h-1.711v-3.215h1.711c.968,0,1.556.4,1.556,1.608S183.321,356.882,182.353,356.882Z" transform="translate(-177.945 -351.316)"/>
      </g>
    </g>
    <g id="Group_12" data-name="Group 12" transform="translate(37.422 50.776)">
      <g id="Group_11" data-name="Group 11">
        <path id="Path_140" data-name="Path 140" d="M249.143,351.316c-.674,0-1.348.242-1.348.813v10.995c0,.553.674.83,1.348.83s1.348-.277,1.348-.83V352.129C250.492,351.558,249.818,351.316,249.143,351.316Z" transform="translate(-247.795 -351.316)"/>
      </g>
    </g>
    <g id="Group_14" data-name="Group 14" transform="translate(41.847 50.776)">
      <g id="Group_13" data-name="Group 13">
        <path id="Path_141" data-name="Path 141" d="M285.538,359.166c-.691,0-1.279.173-1.331.813-.052.674-.138,1.729-1.521,1.729-1,0-1.573-.553-1.573-1.729V355.4c0-1.176.57-1.729,1.556-1.729a1.393,1.393,0,0,1,1.539,1.556c.035.622.622.813,1.348.813.916,0,1.348-.242,1.348-1.279,0-2.2-1.867-3.44-4.339-3.44-2.265,0-4.149,1.106-4.149,4.08v4.581c0,2.973,1.884,4.08,4.149,4.08,2.472,0,4.339-1.314,4.339-3.613C286.9,359.408,286.472,359.166,285.538,359.166Z" transform="translate(-278.416 -351.318)"/>
      </g>
    </g>
    <g id="Group_16" data-name="Group 16" transform="translate(51.701 50.776)">
      <g id="Group_15" data-name="Group 15">
        <path id="Path_142" data-name="Path 142" d="M353.922,361.6h-4.633v-2.939h2.593c.57,0,.813-.553.813-1.02,0-.553-.294-1.054-.813-1.054h-2.593v-2.922h4.633c.519,0,.813-.553.813-1.193,0-.553-.242-1.158-.813-1.158h-6.154c-.588,0-1.175.277-1.175.83v10.977c0,.553.588.83,1.175.83h6.154c.57,0,.813-.605.813-1.158C354.734,362.155,354.44,361.6,353.922,361.6Z" transform="translate(-346.592 -351.316)"/>
      </g>
    </g>
  </g>
</svg>
