<svg width="39" height="39" viewBox="0 0 39 39" fill="none" xmlns="http://www.w3.org/2000/svg">
<path d="M34.802 16.7916C34.9645 17.7803 35.0594 18.7959 35.0594 19.8656C35.0594 24.8084 33.2989 28.9791 30.2385 31.8094C27.5573 34.2875 23.8876 35.75 19.5001 35.75C13.149 35.75 7.66459 32.0937 4.99688 26.7854C3.88646 24.5916 3.25 22.1271 3.25 19.5C3.25 16.8729 3.88646 14.4083 4.99688 12.2146C7.66459 6.90625 13.149 3.25 19.5001 3.25C23.8876 3.25 27.5573 4.86146 30.3604 7.48854L25.7292 12.1198C24.0364 10.5083 21.8969 9.68229 19.5001 9.68229C15.2615 9.68229 11.6729 12.5396 10.3865 16.399C10.0615 17.374 9.87188 18.4166 9.87188 19.5C9.87188 20.5834 10.0479 21.626 10.3865 22.601C11.6729 26.4604 15.2615 29.3178 19.5001 29.3178C21.6938 29.3178 23.5489 28.7219 25.0114 27.7469C26.7177 26.5959 27.8688 24.9031 28.2614 22.899H19.5001V16.7916H34.802Z" stroke="white" stroke-width="2" stroke-linejoin="round"/>
</svg>
