<svg width="44" height="44" viewBox="0 0 44 44" fill="none" xmlns="http://www.w3.org/2000/svg">
<g clip-path="url(#clip0_4_251)">
<path d="M5.88444 39.0505C6.12752 39.0505 6.32444 38.8535 6.32444 38.6105V26.2434C6.32444 26.0003 6.12752 25.8034 5.88444 25.8034H2.36444C2.30666 25.8034 2.24944 25.8147 2.19605 25.8368C2.14266 25.859 2.09415 25.8914 2.05329 25.9322C2.01243 25.9731 1.98002 26.0216 1.95791 26.075C1.9358 26.1284 1.92443 26.1856 1.92444 26.2434V38.6105C1.92444 38.8535 2.12137 39.0505 2.36444 39.0505H5.88444V39.0505ZM5.88444 40.8105H2.36444C1.14937 40.8105 0.164443 39.8255 0.164443 38.6105V26.2434C0.164443 25.0283 1.14937 24.0434 2.36444 24.0434H5.88444C7.09951 24.0434 8.08444 25.0283 8.08444 26.2434V38.6105C8.08444 39.8255 7.09951 40.8105 5.88444 40.8105V40.8105ZM17.8475 39.0505C18.0906 39.0505 18.2875 38.8535 18.2875 38.6105V23.6896C18.2875 23.4465 18.0906 23.2496 17.8475 23.2496H14.3275C14.2698 23.2496 14.2125 23.261 14.1591 23.2831C14.1058 23.3052 14.0573 23.3376 14.0164 23.3785C13.9755 23.4193 13.9431 23.4678 13.921 23.5212C13.8989 23.5746 13.8875 23.6318 13.8875 23.6896V38.6105C13.8875 38.8535 14.0845 39.0505 14.3275 39.0505H17.8475ZM17.8475 40.8105H14.3275C13.1125 40.8105 12.1275 39.8255 12.1275 38.6105V23.6896C12.1275 22.4745 13.1125 21.4896 14.3275 21.4896H17.8475C19.0626 21.4896 20.0475 22.4745 20.0475 23.6896V38.6105C20.0475 39.8255 19.0626 40.8105 17.8475 40.8105ZM29.8106 39.077C30.0537 39.077 30.2506 38.8801 30.2506 38.637V21.162C30.2506 20.9192 30.0535 20.722 29.8106 20.722H26.2906C26.0478 20.722 25.8506 20.9192 25.8506 21.162V38.637C25.8506 38.8801 26.0476 39.077 26.2906 39.077H29.8106ZM29.8106 40.837H26.2906C25.0756 40.837 24.0906 39.8521 24.0906 38.637V21.162C24.0906 19.9472 25.0757 18.962 26.2906 18.962H29.8106C31.0256 18.962 32.0106 19.9472 32.0106 21.162V38.637C32.0106 39.8521 31.0257 40.837 29.8106 40.837ZM41.7737 39.0771C42.0168 39.0771 42.2137 38.8802 42.2137 38.6371V18.9621C42.2137 18.719 42.0168 18.5221 41.7737 18.5221H38.2537C38.196 18.522 38.1387 18.5334 38.0854 18.5555C38.032 18.5776 37.9835 18.61 37.9426 18.6509C37.9017 18.6918 37.8693 18.7403 37.8472 18.7937C37.8251 18.8471 37.8137 18.9043 37.8137 18.9621V38.6371C37.8137 38.8802 38.0107 39.0771 38.2537 39.0771H41.7737V39.0771ZM41.7737 40.8371H38.2537C37.0387 40.8371 36.0537 39.8522 36.0537 38.6371V18.9621C36.0537 17.747 37.0387 16.7621 38.2537 16.7621H41.7737C42.9888 16.7621 43.9737 17.747 43.9737 18.9621V38.6371C43.9737 39.8522 42.9888 40.8371 41.7737 40.8371V40.8371ZM41.5071 4.66163C29.1061 11.6483 15.2654 15.77 0.826892 16.6433C0.341775 16.6727 -0.0277136 17.0897 0.00163401 17.5749C0.0309817 18.06 0.448036 18.4295 0.933154 18.4001C15.6395 17.5106 29.739 13.3118 42.371 6.19501C42.7944 5.95645 42.9443 5.41981 42.7057 4.99636C42.4672 4.5729 41.9305 4.42307 41.5071 4.66163H41.5071Z" fill="white"/>
<path d="M38.7239 4.83999L43.1235 4.8466C43.6095 4.84733 44.0041 4.45396 44.0048 3.96794C44.0055 3.48192 43.6121 3.08734 43.1261 3.0866L38.7265 3.07999C38.2405 3.07926 37.8459 3.47264 37.8452 3.95866C37.8445 4.44467 38.2379 4.83926 38.7239 4.83999V4.83999Z" fill="white"/>
<path d="M42.2448 3.96392L42.2316 8.3393C42.2301 8.82532 42.6229 9.2205 43.1089 9.22196C43.5949 9.22342 43.9901 8.83064 43.9916 8.34463L44.0048 3.96925C44.0062 3.48323 43.6134 3.08804 43.1274 3.08658C42.6414 3.08512 42.2462 3.4779 42.2448 3.96392V3.96392Z" fill="white"/>
</g>
<defs>
<clipPath id="clip0_4_251">
<rect width="44" height="44" fill="white"/>
</clipPath>
</defs>
</svg>
