<svg width="42" height="42" viewBox="0 0 42 42" fill="none" xmlns="http://www.w3.org/2000/svg">
<path fill-rule="evenodd" clip-rule="evenodd" d="M21 3.5C17.5388 3.5 14.1554 4.52636 11.2775 6.44928C8.39967 8.37221 6.15665 11.1053 4.83212 14.303C3.50758 17.5007 3.16102 21.0194 3.83627 24.4141C4.51151 27.8087 6.17822 30.927 8.62564 33.3744C11.0731 35.8218 14.1913 37.4885 17.5859 38.1637C20.9806 38.839 24.4993 38.4924 27.697 37.1679C30.8947 35.8434 33.6278 33.6003 35.5507 30.7225C37.4736 27.8446 38.5 24.4612 38.5 21H21V3.5Z" stroke="white" stroke-width="2.5" stroke-linecap="round" stroke-linejoin="round"/>
<path fill-rule="evenodd" clip-rule="evenodd" d="M26.25 15.75H37.6963C36.8483 13.0629 35.3652 10.6197 33.3728 8.62723C31.3803 6.63477 28.9371 5.15172 26.25 4.30365V15.75Z" stroke="white" stroke-width="2.5" stroke-linecap="round" stroke-linejoin="round"/>
</svg>
