<svg width="81" height="81" viewBox="0 0 81 81" fill="none" xmlns="http://www.w3.org/2000/svg">
<path d="M79.2575 22.4888L66.8015 9.07454C65.5692 7.74765 63.8239 6.98651 62.0132 6.98651H18.9868C17.1761 6.98651 15.4306 7.74765 14.1983 9.07454L1.74245 22.4888C-0.493809 24.8969 -0.5886 28.6126 1.52193 31.1316L35.4912 71.6755C36.7361 73.1612 38.5618 74.0133 40.5001 74.0133C42.4384 74.0133 44.2639 73.1612 45.5087 71.6755L79.4781 31.1314C81.5886 28.6126 81.4938 24.8969 79.2575 22.4888ZM77.4393 24.1773C77.8086 24.575 78.0807 25.0311 78.261 25.5144H59.5359L64.8053 10.5844C64.8661 10.6421 64.9257 10.7012 64.9831 10.7631L77.4393 24.1773ZM62.5546 9.50598L57.2738 24.4681L43.3451 9.4681H62.013C62.1951 9.46793 62.3759 9.48166 62.5546 9.50598ZM54.8592 25.5144H26.1408L40.5001 10.0506L54.8592 25.5144ZM37.6547 9.46793L23.726 24.4681L18.4452 9.50598C18.6239 9.48166 18.8047 9.4681 18.9867 9.4681H37.6547V9.46793ZM16.0167 10.7631C16.0741 10.7014 16.1339 10.6421 16.1947 10.5844L21.4641 25.5144H2.73915C2.91947 25.0311 3.1916 24.575 3.56083 24.1773L16.0167 10.7631ZM3.42402 29.538C3.03676 29.0758 2.77224 28.5479 2.62335 27.9959H22.3397L37.0484 69.6705L3.42402 29.538ZM40.3353 71.5276L24.9712 27.9959H56.0288L40.6647 71.5276C40.6099 71.5297 40.5552 71.532 40.5001 71.532C40.445 71.532 40.3901 71.5297 40.3353 71.5276ZM43.9516 69.6705L58.6603 27.996H78.3766C78.2278 28.5479 77.9632 29.0759 77.576 29.5381L43.9516 69.6705Z" fill="white"/>
<path d="M45.0693 47.7764C45.206 47.8247 45.3451 47.8476 45.4822 47.8476C45.9936 47.8476 46.4723 47.5291 46.6521 47.0194L51.7902 32.4618C52.0183 31.8156 51.6793 31.1069 51.0332 30.879C50.3872 30.6507 49.6783 30.9896 49.4503 31.636L44.3123 46.1936C44.0842 46.8398 44.4232 47.5485 45.0693 47.7764Z" fill="white"/>
<path d="M39.5908 17.3175L44.8845 23.0183C45.129 23.2815 45.4611 23.4147 45.7941 23.4147C46.0961 23.4147 46.3992 23.305 46.6381 23.0831C47.1402 22.6168 47.1693 21.8318 46.7031 21.3296L41.4094 15.6288C40.9432 15.1267 40.1581 15.0976 39.6559 15.5638C39.1536 16.0303 39.1245 16.8152 39.5908 17.3175Z" fill="white"/>
</svg>
